solid CATIA STL
  facet normal  0.000000e+000  0.000000e+000  1.000000e+000
    outer loop
      vertex  1.081302e+002  3.500000e+003  1.700000e+003
      vertex  9.000000e+003  3.500000e+003  1.700000e+003
      vertex -8.233101e+001  3.690461e+003  1.700000e+003
    endloop
  endfacet
  facet normal  0.000000e+000  0.000000e+000  1.000000e+000
    outer loop
      vertex  3.272078e+002  4.100000e+003  1.700000e+003
      vertex -8.233101e+001  3.690461e+003  1.700000e+003
      vertex  9.600000e+003  4.100000e+003  1.700000e+003
    endloop
  endfacet
  facet normal  0.000000e+000  0.000000e+000  1.000000e+000
    outer loop
      vertex  9.600000e+003  4.100000e+003  1.700000e+003
      vertex -8.233101e+001  3.690461e+003  1.700000e+003
      vertex  9.000000e+003  3.500000e+003  1.700000e+003
    endloop
  endfacet
  facet normal  -0.000000e+000  0.000000e+000  1.000000e+000
    outer loop
      vertex  9.600000e+003  4.100000e+003  1.700000e+003
      vertex  9.000000e+003  3.500000e+003  1.700000e+003
      vertex  9.600000e+003 -3.800000e+003  1.700000e+003
    endloop
  endfacet
  facet normal  0.000000e+000  0.000000e+000  9.999999e-001
    outer loop
      vertex  9.600000e+003 -3.800000e+003  1.700000e+003
      vertex  9.000000e+003  3.500000e+003  1.700000e+003
      vertex  9.000000e+003 -3.200000e+003  1.700000e+003
    endloop
  endfacet
  facet normal  0.000000e+000  0.000000e+000  1.000000e+000
    outer loop
      vertex  9.600000e+003 -3.800000e+003  1.700000e+003
      vertex  9.000000e+003 -3.200000e+003  1.700000e+003
      vertex -5.205382e+003 -3.800000e+003  1.700000e+003
    endloop
  endfacet
  facet normal  0.000000e+000  0.000000e+000  1.000000e+000
    outer loop
      vertex -5.205382e+003 -3.800000e+003  1.700000e+003
      vertex  9.000000e+003 -3.200000e+003  1.700000e+003
      vertex -4.956854e+003 -3.200000e+003  1.700000e+003
    endloop
  endfacet
  facet normal  0.000000e+000  0.000000e+000  1.000000e+000
    outer loop
      vertex -5.205382e+003 -3.800000e+003  1.700000e+003
      vertex -4.956854e+003 -3.200000e+003  1.700000e+003
      vertex -6.389087e+003 -2.616295e+003  1.700000e+003
    endloop
  endfacet
  facet normal  -0.000000e+000  0.000000e+000  9.999999e-001
    outer loop
      vertex -6.389087e+003 -2.616295e+003  1.700000e+003
      vertex -4.956854e+003 -3.200000e+003  1.700000e+003
      vertex -5.964823e+003 -2.192031e+003  1.700000e+003
    endloop
  endfacet
  facet normal  0.000000e+000  0.000000e+000 -1.000000e+000
    outer loop
      vertex -8.233101e+001  3.690461e+003 -1.300000e+003
      vertex  9.000000e+003  3.500000e+003 -1.300000e+003
      vertex  1.081302e+002  3.500000e+003 -1.300000e+003
    endloop
  endfacet
  facet normal  0.000000e+000  0.000000e+000 -1.000000e+000
    outer loop
      vertex  9.600000e+003 -3.800000e+003 -1.300000e+003
      vertex  9.000000e+003  3.500000e+003 -1.300000e+003
      vertex  9.600000e+003  4.100000e+003 -1.300000e+003
    endloop
  endfacet
  facet normal  0.000000e+000  0.000000e+000 -1.000000e+000
    outer loop
      vertex  9.600000e+003  4.100000e+003 -1.300000e+003
      vertex  9.000000e+003  3.500000e+003 -1.300000e+003
      vertex -8.233101e+001  3.690461e+003 -1.300000e+003
    endloop
  endfacet
  facet normal  0.000000e+000  0.000000e+000 -1.000000e+000
    outer loop
      vertex  9.600000e+003  4.100000e+003 -1.300000e+003
      vertex -8.233101e+001  3.690461e+003 -1.300000e+003
      vertex  3.272078e+002  4.100000e+003 -1.300000e+003
    endloop
  endfacet
  facet normal  0.000000e+000  0.000000e+000 -9.999999e-001
    outer loop
      vertex  9.000000e+003  3.500000e+003 -1.300000e+003
      vertex  9.600000e+003 -3.800000e+003 -1.300000e+003
      vertex  9.000000e+003 -3.200000e+003 -1.300000e+003
    endloop
  endfacet
  facet normal  0.000000e+000  -0.000000e+000 -1.000000e+000
    outer loop
      vertex  9.000000e+003 -3.200000e+003 -1.300000e+003
      vertex  9.600000e+003 -3.800000e+003 -1.300000e+003
      vertex -5.205382e+003 -3.800000e+003 -1.300000e+003
    endloop
  endfacet
  facet normal  0.000000e+000  0.000000e+000 -1.000000e+000
    outer loop
      vertex  9.000000e+003 -3.200000e+003 -1.300000e+003
      vertex -5.205382e+003 -3.800000e+003 -1.300000e+003
      vertex -4.956854e+003 -3.200000e+003 -1.300000e+003
    endloop
  endfacet
  facet normal  -0.000000e+000  0.000000e+000 -1.000000e+000
    outer loop
      vertex -4.956854e+003 -3.200000e+003 -1.300000e+003
      vertex -5.205382e+003 -3.800000e+003 -1.300000e+003
      vertex -6.389087e+003 -2.616295e+003 -1.300000e+003
    endloop
  endfacet
  facet normal  0.000000e+000  0.000000e+000 -9.999999e-001
    outer loop
      vertex -4.956854e+003 -3.200000e+003 -1.300000e+003
      vertex -6.389087e+003 -2.616295e+003 -1.300000e+003
      vertex -5.964823e+003 -2.192031e+003 -1.300000e+003
    endloop
  endfacet
  facet normal -7.071067e-001 -7.071068e-001  0.000000e+000
    outer loop
      vertex -8.233101e+001  3.690461e+003 -1.300000e+003
      vertex  1.081302e+002  3.500000e+003 -1.300000e+003
      vertex -8.233101e+001  3.690461e+003  1.700000e+003
    endloop
  endfacet
  facet normal -7.071067e-001 -7.071068e-001  0.000000e+000
    outer loop
      vertex -8.233101e+001  3.690461e+003  1.700000e+003
      vertex  1.081302e+002  3.500000e+003 -1.300000e+003
      vertex  1.081302e+002  3.500000e+003  1.700000e+003
    endloop
  endfacet
  facet normal -7.071068e-001  7.071068e-001  0.000000e+000
    outer loop
      vertex -8.233101e+001  3.690461e+003  1.700000e+003
      vertex  3.272078e+002  4.100000e+003  1.700000e+003
      vertex -8.233101e+001  3.690461e+003 -1.300000e+003
    endloop
  endfacet
  facet normal -7.071068e-001  7.071068e-001  0.000000e+000
    outer loop
      vertex -8.233101e+001  3.690461e+003 -1.300000e+003
      vertex  3.272078e+002  4.100000e+003  1.700000e+003
      vertex  3.272078e+002  4.100000e+003 -1.300000e+003
    endloop
  endfacet
  facet normal  0.000000e+000  1.000000e+000  -0.000000e+000
    outer loop
      vertex  9.600000e+003  4.100000e+003  1.700000e+003
      vertex  9.600000e+003  4.100000e+003 -1.300000e+003
      vertex  3.272078e+002  4.100000e+003  1.700000e+003
    endloop
  endfacet
  facet normal  0.000000e+000  1.000000e+000  0.000000e+000
    outer loop
      vertex  3.272078e+002  4.100000e+003  1.700000e+003
      vertex  9.600000e+003  4.100000e+003 -1.300000e+003
      vertex  3.272078e+002  4.100000e+003 -1.300000e+003
    endloop
  endfacet
  facet normal  1.000000e+000  0.000000e+000  0.000000e+000
    outer loop
      vertex  9.600000e+003 -3.800000e+003  1.700000e+003
      vertex  9.600000e+003 -3.800000e+003 -1.300000e+003
      vertex  9.600000e+003  4.100000e+003  1.700000e+003
    endloop
  endfacet
  facet normal  1.000000e+000  0.000000e+000  0.000000e+000
    outer loop
      vertex  9.600000e+003  4.100000e+003  1.700000e+003
      vertex  9.600000e+003 -3.800000e+003 -1.300000e+003
      vertex  9.600000e+003  4.100000e+003 -1.300000e+003
    endloop
  endfacet
  facet normal  0.000000e+000 -9.999999e-001  0.000000e+000
    outer loop
      vertex -5.205382e+003 -3.800000e+003  1.700000e+003
      vertex -5.205382e+003 -3.800000e+003 -1.300000e+003
      vertex  9.600000e+003 -3.800000e+003  1.700000e+003
    endloop
  endfacet
  facet normal  0.000000e+000 -9.999999e-001  -0.000000e+000
    outer loop
      vertex  9.600000e+003 -3.800000e+003  1.700000e+003
      vertex -5.205382e+003 -3.800000e+003 -1.300000e+003
      vertex  9.600000e+003 -3.800000e+003 -1.300000e+003
    endloop
  endfacet
  facet normal -7.071067e-001 -7.071069e-001  0.000000e+000
    outer loop
      vertex -6.389087e+003 -2.616295e+003 -1.300000e+003
      vertex -5.205382e+003 -3.800000e+003 -1.300000e+003
      vertex -6.389087e+003 -2.616295e+003  1.700000e+003
    endloop
  endfacet
  facet normal -7.071067e-001 -7.071069e-001  0.000000e+000
    outer loop
      vertex -6.389087e+003 -2.616295e+003  1.700000e+003
      vertex -5.205382e+003 -3.800000e+003 -1.300000e+003
      vertex -5.205382e+003 -3.800000e+003  1.700000e+003
    endloop
  endfacet
  facet normal -7.071068e-001  7.071068e-001  0.000000e+000
    outer loop
      vertex -6.389087e+003 -2.616295e+003  1.700000e+003
      vertex -5.964823e+003 -2.192031e+003  1.700000e+003
      vertex -6.389087e+003 -2.616295e+003 -1.300000e+003
    endloop
  endfacet
  facet normal -7.071068e-001  7.071068e-001  0.000000e+000
    outer loop
      vertex -6.389087e+003 -2.616295e+003 -1.300000e+003
      vertex -5.964823e+003 -2.192031e+003  1.700000e+003
      vertex -5.964823e+003 -2.192031e+003 -1.300000e+003
    endloop
  endfacet
  facet normal  7.071068e-001  7.071066e-001  0.000000e+000
    outer loop
      vertex -5.964823e+003 -2.192031e+003 -1.300000e+003
      vertex -5.964823e+003 -2.192031e+003  1.700000e+003
      vertex -4.956854e+003 -3.200000e+003 -1.300000e+003
    endloop
  endfacet
  facet normal  7.071068e-001  7.071066e-001  -0.000000e+000
    outer loop
      vertex -4.956854e+003 -3.200000e+003 -1.300000e+003
      vertex -5.964823e+003 -2.192031e+003  1.700000e+003
      vertex -4.956854e+003 -3.200000e+003  1.700000e+003
    endloop
  endfacet
  facet normal  0.000000e+000  1.000000e+000  -0.000000e+000
    outer loop
      vertex  9.000000e+003 -3.200000e+003  1.700000e+003
      vertex  9.000000e+003 -3.200000e+003 -1.300000e+003
      vertex -4.956854e+003 -3.200000e+003  1.700000e+003
    endloop
  endfacet
  facet normal  0.000000e+000  1.000000e+000  0.000000e+000
    outer loop
      vertex -4.956854e+003 -3.200000e+003  1.700000e+003
      vertex  9.000000e+003 -3.200000e+003 -1.300000e+003
      vertex -4.956854e+003 -3.200000e+003 -1.300000e+003
    endloop
  endfacet
  facet normal -1.000000e+000  0.000000e+000  0.000000e+000
    outer loop
      vertex  9.000000e+003  3.500000e+003  1.700000e+003
      vertex  9.000000e+003  3.500000e+003 -1.300000e+003
      vertex  9.000000e+003 -3.200000e+003  1.700000e+003
    endloop
  endfacet
  facet normal -1.000000e+000  0.000000e+000  0.000000e+000
    outer loop
      vertex  9.000000e+003 -3.200000e+003  1.700000e+003
      vertex  9.000000e+003  3.500000e+003 -1.300000e+003
      vertex  9.000000e+003 -3.200000e+003 -1.300000e+003
    endloop
  endfacet
  facet normal  0.000000e+000 -1.000000e+000  0.000000e+000
    outer loop
      vertex  1.081302e+002  3.500000e+003  1.700000e+003
      vertex  1.081302e+002  3.500000e+003 -1.300000e+003
      vertex  9.000000e+003  3.500000e+003  1.700000e+003
    endloop
  endfacet
  facet normal  0.000000e+000 -1.000000e+000  -0.000000e+000
    outer loop
      vertex  9.000000e+003  3.500000e+003  1.700000e+003
      vertex  1.081302e+002  3.500000e+003 -1.300000e+003
      vertex  9.000000e+003  3.500000e+003 -1.300000e+003
    endloop
  endfacet
  facet normal  0.000000e+000  -0.000000e+000  1.000000e+000
    outer loop
      vertex -5.399138e+003 -2.757717e+003  1.700000e+003
      vertex -4.956854e+003 -3.200000e+003  1.700000e+003
      vertex -4.338478e+003 -1.697056e+003  1.700000e+003
    endloop
  endfacet
  facet normal  0.000000e+000  0.000000e+000  1.000000e+000
    outer loop
      vertex -4.338478e+003 -1.697056e+003  1.700000e+003
      vertex -4.956854e+003 -3.200000e+003  1.700000e+003
      vertex -2.835534e+003 -3.200000e+003  1.700000e+003
    endloop
  endfacet
  facet normal  0.000000e+000  0.000000e+000 -1.000000e+000
    outer loop
      vertex -5.399138e+003 -2.757717e+003 -1.300000e+003
      vertex -4.338478e+003 -1.697056e+003 -1.300000e+003
      vertex -4.956854e+003 -3.200000e+003 -1.300000e+003
    endloop
  endfacet
  facet normal  0.000000e+000  0.000000e+000 -1.000000e+000
    outer loop
      vertex -4.956854e+003 -3.200000e+003 -1.300000e+003
      vertex -4.338478e+003 -1.697056e+003 -1.300000e+003
      vertex -2.835534e+003 -3.200000e+003 -1.300000e+003
    endloop
  endfacet
  facet normal -7.071068e-001  7.071068e-001  0.000000e+000
    outer loop
      vertex -5.399138e+003 -2.757717e+003 -1.300000e+003
      vertex -5.399138e+003 -2.757717e+003  1.700000e+003
      vertex -4.338478e+003 -1.697056e+003 -1.300000e+003
    endloop
  endfacet
  facet normal -7.071068e-001  7.071068e-001  0.000000e+000
    outer loop
      vertex -4.338478e+003 -1.697056e+003 -1.300000e+003
      vertex -5.399138e+003 -2.757717e+003  1.700000e+003
      vertex -4.338478e+003 -1.697056e+003  1.700000e+003
    endloop
  endfacet
  facet normal  7.071068e-001  7.071068e-001  0.000000e+000
    outer loop
      vertex -4.338478e+003 -1.697056e+003 -1.300000e+003
      vertex -4.338478e+003 -1.697056e+003  1.700000e+003
      vertex -2.835534e+003 -3.200000e+003 -1.300000e+003
    endloop
  endfacet
  facet normal  7.071068e-001  7.071068e-001  -0.000000e+000
    outer loop
      vertex -2.835534e+003 -3.200000e+003 -1.300000e+003
      vertex -4.338478e+003 -1.697056e+003  1.700000e+003
      vertex -2.835534e+003 -3.200000e+003  1.700000e+003
    endloop
  endfacet
  facet normal  0.000000e+000 -1.000000e+000  -0.000000e+000
    outer loop
      vertex -2.835534e+003 -3.200000e+003 -1.300000e+003
      vertex -2.835534e+003 -3.200000e+003  1.700000e+003
      vertex -4.956854e+003 -3.200000e+003 -1.300000e+003
    endloop
  endfacet
  facet normal  0.000000e+000 -1.000000e+000  0.000000e+000
    outer loop
      vertex -4.956854e+003 -3.200000e+003 -1.300000e+003
      vertex -2.835534e+003 -3.200000e+003  1.700000e+003
      vertex -4.956854e+003 -3.200000e+003  1.700000e+003
    endloop
  endfacet
  facet normal -7.071070e-001 -7.071066e-001  0.000000e+000
    outer loop
      vertex -5.399138e+003 -2.757717e+003  1.700000e+003
      vertex -5.399138e+003 -2.757717e+003 -1.300000e+003
      vertex -4.956854e+003 -3.200000e+003  1.700000e+003
    endloop
  endfacet
  facet normal -7.071070e-001 -7.071066e-001  -0.000000e+000
    outer loop
      vertex -4.956854e+003 -3.200000e+003  1.700000e+003
      vertex -5.399138e+003 -2.757717e+003 -1.300000e+003
      vertex -4.956854e+003 -3.200000e+003 -1.300000e+003
    endloop
  endfacet
  facet normal  0.000000e+000  0.000000e+000  9.999999e-001
    outer loop
      vertex -1.130258e+004  2.295780e+003  1.700000e+003
      vertex -1.330058e+004  4.293780e+003  1.700000e+003
      vertex -1.130258e+004 -1.501000e+003  1.700000e+003
    endloop
  endfacet
  facet normal  0.000000e+000  0.000000e+000  1.000000e+000
    outer loop
      vertex -1.130258e+004 -1.501000e+003  1.700000e+003
      vertex -1.330058e+004  4.293780e+003  1.700000e+003
      vertex -1.330058e+004 -3.499000e+003  1.700000e+003
    endloop
  endfacet
  facet normal  0.000000e+000  0.000000e+000  9.999999e-001
    outer loop
      vertex -1.130258e+004 -1.501000e+003  1.700000e+003
      vertex -1.330058e+004 -3.499000e+003  1.700000e+003
      vertex -7.505796e+003 -1.501000e+003  1.700000e+003
    endloop
  endfacet
  facet normal  0.000000e+000  0.000000e+000  1.000000e+000
    outer loop
      vertex -7.505796e+003 -1.501000e+003  1.700000e+003
      vertex -1.330058e+004 -3.499000e+003  1.700000e+003
      vertex -5.507796e+003 -3.499000e+003  1.700000e+003
    endloop
  endfacet
  facet normal  0.000000e+000  0.000000e+000 -9.999999e-001
    outer loop
      vertex -1.130258e+004  2.295780e+003 -1.300000e+003
      vertex -1.130258e+004 -1.501000e+003 -1.300000e+003
      vertex -1.330058e+004  4.293780e+003 -1.300000e+003
    endloop
  endfacet
  facet normal  0.000000e+000  0.000000e+000 -1.000000e+000
    outer loop
      vertex -1.330058e+004  4.293780e+003 -1.300000e+003
      vertex -1.130258e+004 -1.501000e+003 -1.300000e+003
      vertex -1.330058e+004 -3.499000e+003 -1.300000e+003
    endloop
  endfacet
  facet normal  -0.000000e+000  0.000000e+000 -9.999999e-001
    outer loop
      vertex -1.130258e+004 -1.501000e+003 -1.300000e+003
      vertex -7.505796e+003 -1.501000e+003 -1.300000e+003
      vertex -1.330058e+004 -3.499000e+003 -1.300000e+003
    endloop
  endfacet
  facet normal  0.000000e+000  0.000000e+000 -1.000000e+000
    outer loop
      vertex -1.330058e+004 -3.499000e+003 -1.300000e+003
      vertex -7.505796e+003 -1.501000e+003 -1.300000e+003
      vertex -5.507796e+003 -3.499000e+003 -1.300000e+003
    endloop
  endfacet
  facet normal  7.071068e-001  7.071068e-001  0.000000e+000
    outer loop
      vertex -1.330058e+004  4.293780e+003  1.700000e+003
      vertex -1.130258e+004  2.295780e+003  1.700000e+003
      vertex -1.330058e+004  4.293780e+003 -1.300000e+003
    endloop
  endfacet
  facet normal  7.071068e-001  7.071068e-001  0.000000e+000
    outer loop
      vertex -1.330058e+004  4.293780e+003 -1.300000e+003
      vertex -1.130258e+004  2.295780e+003  1.700000e+003
      vertex -1.130258e+004  2.295780e+003 -1.300000e+003
    endloop
  endfacet
  facet normal  1.000000e+000  -0.000000e+000  0.000000e+000
    outer loop
      vertex -1.130258e+004  2.295780e+003  1.700000e+003
      vertex -1.130258e+004 -1.501000e+003  1.700000e+003
      vertex -1.130258e+004  2.295780e+003 -1.300000e+003
    endloop
  endfacet
  facet normal  1.000000e+000  0.000000e+000  0.000000e+000
    outer loop
      vertex -1.130258e+004  2.295780e+003 -1.300000e+003
      vertex -1.130258e+004 -1.501000e+003  1.700000e+003
      vertex -1.130258e+004 -1.501000e+003 -1.300000e+003
    endloop
  endfacet
  facet normal  0.000000e+000  1.000000e+000  0.000000e+000
    outer loop
      vertex -1.130258e+004 -1.501000e+003  1.700000e+003
      vertex -7.505796e+003 -1.501000e+003  1.700000e+003
      vertex -1.130258e+004 -1.501000e+003 -1.300000e+003
    endloop
  endfacet
  facet normal  0.000000e+000  1.000000e+000  0.000000e+000
    outer loop
      vertex -1.130258e+004 -1.501000e+003 -1.300000e+003
      vertex -7.505796e+003 -1.501000e+003  1.700000e+003
      vertex -7.505796e+003 -1.501000e+003 -1.300000e+003
    endloop
  endfacet
  facet normal  7.071068e-001  7.071068e-001  0.000000e+000
    outer loop
      vertex -7.505796e+003 -1.501000e+003  1.700000e+003
      vertex -5.507796e+003 -3.499000e+003  1.700000e+003
      vertex -7.505796e+003 -1.501000e+003 -1.300000e+003
    endloop
  endfacet
  facet normal  7.071068e-001  7.071068e-001  0.000000e+000
    outer loop
      vertex -7.505796e+003 -1.501000e+003 -1.300000e+003
      vertex -5.507796e+003 -3.499000e+003  1.700000e+003
      vertex -5.507796e+003 -3.499000e+003 -1.300000e+003
    endloop
  endfacet
  facet normal  0.000000e+000 -1.000000e+000  0.000000e+000
    outer loop
      vertex -5.507796e+003 -3.499000e+003  1.700000e+003
      vertex -1.330058e+004 -3.499000e+003  1.700000e+003
      vertex -5.507796e+003 -3.499000e+003 -1.300000e+003
    endloop
  endfacet
  facet normal  0.000000e+000 -1.000000e+000  0.000000e+000
    outer loop
      vertex -5.507796e+003 -3.499000e+003 -1.300000e+003
      vertex -1.330058e+004 -3.499000e+003  1.700000e+003
      vertex -1.330058e+004 -3.499000e+003 -1.300000e+003
    endloop
  endfacet
  facet normal -1.000000e+000  -0.000000e+000  0.000000e+000
    outer loop
      vertex -1.330058e+004 -3.499000e+003  1.700000e+003
      vertex -1.330058e+004  4.293780e+003  1.700000e+003
      vertex -1.330058e+004 -3.499000e+003 -1.300000e+003
    endloop
  endfacet
  facet normal -1.000000e+000  0.000000e+000  0.000000e+000
    outer loop
      vertex -1.330058e+004 -3.499000e+003 -1.300000e+003
      vertex -1.330058e+004  4.293780e+003  1.700000e+003
      vertex -1.330058e+004  4.293780e+003 -1.300000e+003
    endloop
  endfacet
  facet normal  1.000000e+000  0.000000e+000  0.000000e+000
    outer loop
      vertex -1.100158e+004 -1.200000e+003  1.700000e+003
      vertex -1.100158e+004 -1.200000e+003 -1.300000e+003
      vertex -1.100158e+004  1.996194e+003  1.700000e+003
    endloop
  endfacet
  facet normal  1.000000e+000  0.000000e+000  0.000000e+000
    outer loop
      vertex -1.100158e+004  1.996194e+003  1.700000e+003
      vertex -1.100158e+004 -1.200000e+003 -1.300000e+003
      vertex -1.100158e+004  1.996194e+003 -1.300000e+003
    endloop
  endfacet
  facet normal  0.000000e+000  1.000000e+000  0.000000e+000
    outer loop
      vertex -7.381118e+003 -1.200000e+003 -1.300000e+003
      vertex -1.100158e+004 -1.200000e+003 -1.300000e+003
      vertex -7.381118e+003 -1.200000e+003  1.700000e+003
    endloop
  endfacet
  facet normal  0.000000e+000  1.000000e+000  0.000000e+000
    outer loop
      vertex -7.381118e+003 -1.200000e+003  1.700000e+003
      vertex -1.100158e+004 -1.200000e+003 -1.300000e+003
      vertex -1.100158e+004 -1.200000e+003  1.700000e+003
    endloop
  endfacet
  facet normal  0.000000e+000  1.000000e+000  0.000000e+000
    outer loop
      vertex -6.956854e+003 -1.200000e+003 -1.300000e+003
      vertex -7.379704e+003 -1.200000e+003 -1.300000e+003
      vertex -6.956854e+003 -1.200000e+003  1.700000e+003
    endloop
  endfacet
  facet normal  0.000000e+000  1.000000e+000  0.000000e+000
    outer loop
      vertex -6.956854e+003 -1.200000e+003  1.700000e+003
      vertex -7.379704e+003 -1.200000e+003 -1.300000e+003
      vertex -7.379704e+003 -1.200000e+003  1.700000e+003
    endloop
  endfacet
  facet normal  7.071067e-001  7.071067e-001  0.000000e+000
    outer loop
      vertex -6.956854e+003 -1.200000e+003  1.700000e+003
      vertex -6.177663e+003 -1.979192e+003  1.700000e+003
      vertex -6.956854e+003 -1.200000e+003 -1.300000e+003
    endloop
  endfacet
  facet normal  7.071067e-001  7.071067e-001  0.000000e+000
    outer loop
      vertex -6.956854e+003 -1.200000e+003 -1.300000e+003
      vertex -6.177663e+003 -1.979192e+003  1.700000e+003
      vertex -6.177663e+003 -1.979192e+003 -1.300000e+003
    endloop
  endfacet
  facet normal -7.071068e-001 -7.071067e-001  0.000000e+000
    outer loop
      vertex -5.611977e+003 -1.413506e+003  1.700000e+003
      vertex -6.625483e+003 -4.000000e+002  1.700000e+003
      vertex -5.611977e+003 -1.413506e+003 -1.300000e+003
    endloop
  endfacet
  facet normal -7.071068e-001 -7.071067e-001  0.000000e+000
    outer loop
      vertex -5.611977e+003 -1.413506e+003 -1.300000e+003
      vertex -6.625483e+003 -4.000000e+002  1.700000e+003
      vertex -6.625483e+003 -4.000000e+002 -1.300000e+003
    endloop
  endfacet
  facet normal  0.000000e+000 -1.000000e+000  0.000000e+000
    outer loop
      vertex -6.625483e+003 -4.000000e+002  1.700000e+003
      vertex -8.179704e+003 -4.000000e+002  1.700000e+003
      vertex -6.625483e+003 -4.000000e+002 -1.300000e+003
    endloop
  endfacet
  facet normal  0.000000e+000 -1.000000e+000  0.000000e+000
    outer loop
      vertex -6.625483e+003 -4.000000e+002 -1.300000e+003
      vertex -8.179704e+003 -4.000000e+002  1.700000e+003
      vertex -8.179704e+003 -4.000000e+002 -1.300000e+003
    endloop
  endfacet
  facet normal  7.071068e-001 -7.071068e-001  0.000000e+000
    outer loop
      vertex -5.611977e+003 -1.413506e+003  1.700000e+003
      vertex -5.611977e+003 -1.413506e+003 -1.300000e+003
      vertex -1.722182e+003  2.476288e+003  1.700000e+003
    endloop
  endfacet
  facet normal  7.071068e-001 -7.071068e-001  0.000000e+000
    outer loop
      vertex -1.722182e+003  2.476288e+003  1.700000e+003
      vertex -5.611977e+003 -1.413506e+003 -1.300000e+003
      vertex -1.722182e+003  2.476288e+003 -1.300000e+003
    endloop
  endfacet
  facet normal  7.071068e-001 -7.071068e-001  0.000000e+000
    outer loop
      vertex -6.389087e+003 -2.190617e+003  1.700000e+003
      vertex -6.389087e+003 -2.190617e+003 -1.300000e+003
      vertex -6.177663e+003 -1.979192e+003  1.700000e+003
    endloop
  endfacet
  facet normal  7.071068e-001 -7.071068e-001  0.000000e+000
    outer loop
      vertex -6.177663e+003 -1.979192e+003  1.700000e+003
      vertex -6.389087e+003 -2.190617e+003 -1.300000e+003
      vertex -6.177663e+003 -1.979192e+003 -1.300000e+003
    endloop
  endfacet
  facet normal -7.071068e-001 -7.071068e-001  0.000000e+000
    outer loop
      vertex -8.179704e+003 -4.000000e+002  1.700000e+003
      vertex -1.317590e+004  4.596194e+003  1.700000e+003
      vertex -8.179704e+003 -4.000000e+002 -1.300000e+003
    endloop
  endfacet
  facet normal -7.071068e-001 -7.071068e-001  0.000000e+000
    outer loop
      vertex -8.179704e+003 -4.000000e+002 -1.300000e+003
      vertex -1.317590e+004  4.596194e+003  1.700000e+003
      vertex -1.317590e+004  4.596194e+003 -1.300000e+003
    endloop
  endfacet
  facet normal -7.071068e-001 -7.071068e-001  0.000000e+000
    outer loop
      vertex -6.389087e+003 -2.190617e+003  1.700000e+003
      vertex -7.379704e+003 -1.200000e+003  1.700000e+003
      vertex -6.389087e+003 -2.190617e+003 -1.300000e+003
    endloop
  endfacet
  facet normal -7.071068e-001 -7.071068e-001  0.000000e+000
    outer loop
      vertex -6.389087e+003 -2.190617e+003 -1.300000e+003
      vertex -7.379704e+003 -1.200000e+003  1.700000e+003
      vertex -7.379704e+003 -1.200000e+003 -1.300000e+003
    endloop
  endfacet
  facet normal  0.000000e+000  0.000000e+000 -1.000000e+000
    outer loop
      vertex -3.841576e+003  4.595682e+003 -1.300000e+003
      vertex -7.096194e+003  7.850299e+003 -1.300000e+003
      vertex -3.134470e+003  5.302789e+003 -1.300000e+003
    endloop
  endfacet
  facet normal  0.000000e+000  -0.000000e+000 -1.000000e+000
    outer loop
      vertex -5.681980e+003 -7.212489e+001 -1.300000e+003
      vertex -2.427875e+003  3.181980e+003 -1.300000e+003
      vertex -1.722182e+003  2.476288e+003 -1.300000e+003
    endloop
  endfacet
  facet normal  0.000000e+000  0.000000e+000 -1.000000e+000
    outer loop
      vertex -5.681980e+003 -7.212489e+001 -1.300000e+003
      vertex -1.722182e+003  2.476288e+003 -1.300000e+003
      vertex -5.611977e+003 -1.413506e+003 -1.300000e+003
    endloop
  endfacet
  facet normal  0.000000e+000  0.000000e+000 -1.000000e+000
    outer loop
      vertex -5.681980e+003 -7.212489e+001 -1.300000e+003
      vertex -5.611977e+003 -1.413506e+003 -1.300000e+003
      vertex -6.625483e+003 -4.000000e+002 -1.300000e+003
    endloop
  endfacet
  facet normal  0.000000e+000  0.000000e+000 -1.000000e+000
    outer loop
      vertex -5.681980e+003 -7.212489e+001 -1.300000e+003
      vertex -6.625483e+003 -4.000000e+002 -1.300000e+003
      vertex -8.179704e+003 -4.000000e+002 -1.300000e+003
    endloop
  endfacet
  facet normal  0.000000e+000  0.000000e+000 -1.000000e+000
    outer loop
      vertex -5.681980e+003 -7.212489e+001 -1.300000e+003
      vertex -8.179704e+003 -4.000000e+002 -1.300000e+003
      vertex -1.317590e+004  4.596194e+003 -1.300000e+003
    endloop
  endfacet
  facet normal  0.000000e+000  0.000000e+000 -1.000000e+000
    outer loop
      vertex -5.681980e+003 -7.212489e+001 -1.300000e+003
      vertex -1.317590e+004  4.596194e+003 -1.300000e+003
      vertex -1.035030e+004  4.596194e+003 -1.300000e+003
    endloop
  endfacet
  facet normal  0.000000e+000  0.000000e+000 -9.999999e-001
    outer loop
      vertex -1.720256e+003  3.888575e+003 -1.300000e+003
      vertex -3.134470e+003  5.302789e+003 -1.300000e+003
      vertex -1.014564e+003  4.594268e+003 -1.300000e+003
    endloop
  endfacet
  facet normal  0.000000e+000  0.000000e+000 -1.000000e+000
    outer loop
      vertex -1.014564e+003  4.594268e+003 -1.300000e+003
      vertex -3.134470e+003  5.302789e+003 -1.300000e+003
      vertex -7.096194e+003  7.850299e+003 -1.300000e+003
    endloop
  endfacet
  facet normal  0.000000e+000  0.000000e+000 -1.000000e+000
    outer loop
      vertex -1.014564e+003  4.594268e+003 -1.300000e+003
      vertex -7.096194e+003  7.850299e+003 -1.300000e+003
      vertex -7.096194e+003  1.067590e+004 -1.300000e+003
    endloop
  endfacet
  facet normal  0.000000e+000  -0.000000e+000 -1.000000e+000
    outer loop
      vertex -7.096194e+003  1.067590e+004 -1.300000e+003
      vertex -7.096194e+003  7.850299e+003 -1.300000e+003
      vertex -1.035030e+004  4.596194e+003 -1.300000e+003
    endloop
  endfacet
  facet normal  0.000000e+000  0.000000e+000 -1.000000e+000
    outer loop
      vertex -7.096194e+003  1.067590e+004 -1.300000e+003
      vertex -1.035030e+004  4.596194e+003 -1.300000e+003
      vertex -1.317590e+004  4.596194e+003 -1.300000e+003
    endloop
  endfacet
  facet normal  -0.000000e+000  -0.000000e+000 -1.000000e+000
    outer loop
      vertex -7.379704e+003 -1.200000e+003 -1.300000e+003
      vertex -6.956854e+003 -1.200000e+003 -1.300000e+003
      vertex -6.389087e+003 -2.190617e+003 -1.300000e+003
    endloop
  endfacet
  facet normal  0.000000e+000  0.000000e+000 -1.000000e+000
    outer loop
      vertex -6.389087e+003 -2.190617e+003 -1.300000e+003
      vertex -6.956854e+003 -1.200000e+003 -1.300000e+003
      vertex -6.177663e+003 -1.979192e+003 -1.300000e+003
    endloop
  endfacet
  facet normal  0.000000e+000  0.000000e+000  1.000000e+000
    outer loop
      vertex -3.134470e+003  5.302789e+003  1.700000e+003
      vertex -7.096194e+003  7.850299e+003  1.700000e+003
      vertex -3.841576e+003  4.595682e+003  1.700000e+003
    endloop
  endfacet
  facet normal  0.000000e+000  0.000000e+000  1.000000e+000
    outer loop
      vertex -5.681980e+003 -7.212489e+001  1.700000e+003
      vertex -1.035030e+004  4.596194e+003  1.700000e+003
      vertex -1.317590e+004  4.596194e+003  1.700000e+003
    endloop
  endfacet
  facet normal  0.000000e+000  0.000000e+000  1.000000e+000
    outer loop
      vertex -5.681980e+003 -7.212489e+001  1.700000e+003
      vertex -1.317590e+004  4.596194e+003  1.700000e+003
      vertex -8.179704e+003 -4.000000e+002  1.700000e+003
    endloop
  endfacet
  facet normal  0.000000e+000  0.000000e+000  1.000000e+000
    outer loop
      vertex -5.681980e+003 -7.212489e+001  1.700000e+003
      vertex -8.179704e+003 -4.000000e+002  1.700000e+003
      vertex -6.625483e+003 -4.000000e+002  1.700000e+003
    endloop
  endfacet
  facet normal  -0.000000e+000  0.000000e+000  1.000000e+000
    outer loop
      vertex -5.681980e+003 -7.212489e+001  1.700000e+003
      vertex -6.625483e+003 -4.000000e+002  1.700000e+003
      vertex -5.611977e+003 -1.413506e+003  1.700000e+003
    endloop
  endfacet
  facet normal  0.000000e+000  -0.000000e+000  1.000000e+000
    outer loop
      vertex -5.681980e+003 -7.212489e+001  1.700000e+003
      vertex -5.611977e+003 -1.413506e+003  1.700000e+003
      vertex -1.722182e+003  2.476288e+003  1.700000e+003
    endloop
  endfacet
  facet normal  0.000000e+000  0.000000e+000  1.000000e+000
    outer loop
      vertex -5.681980e+003 -7.212489e+001  1.700000e+003
      vertex -1.722182e+003  2.476288e+003  1.700000e+003
      vertex -2.427875e+003  3.181980e+003  1.700000e+003
    endloop
  endfacet
  facet normal  0.000000e+000  -0.000000e+000  1.000000e+000
    outer loop
      vertex -1.317590e+004  4.596194e+003  1.700000e+003
      vertex -1.035030e+004  4.596194e+003  1.700000e+003
      vertex -7.096194e+003  1.067590e+004  1.700000e+003
    endloop
  endfacet
  facet normal  0.000000e+000  0.000000e+000  1.000000e+000
    outer loop
      vertex -7.096194e+003  1.067590e+004  1.700000e+003
      vertex -1.035030e+004  4.596194e+003  1.700000e+003
      vertex -7.096194e+003  7.850299e+003  1.700000e+003
    endloop
  endfacet
  facet normal  -0.000000e+000  0.000000e+000  1.000000e+000
    outer loop
      vertex -7.096194e+003  1.067590e+004  1.700000e+003
      vertex -7.096194e+003  7.850299e+003  1.700000e+003
      vertex -1.014564e+003  4.594268e+003  1.700000e+003
    endloop
  endfacet
  facet normal  0.000000e+000  0.000000e+000  1.000000e+000
    outer loop
      vertex -1.014564e+003  4.594268e+003  1.700000e+003
      vertex -7.096194e+003  7.850299e+003  1.700000e+003
      vertex -3.134470e+003  5.302789e+003  1.700000e+003
    endloop
  endfacet
  facet normal  0.000000e+000  0.000000e+000  9.999999e-001
    outer loop
      vertex -1.014564e+003  4.594268e+003  1.700000e+003
      vertex -3.134470e+003  5.302789e+003  1.700000e+003
      vertex -1.720256e+003  3.888575e+003  1.700000e+003
    endloop
  endfacet
  facet normal  0.000000e+000  0.000000e+000  1.000000e+000
    outer loop
      vertex -6.389087e+003 -2.190617e+003  1.700000e+003
      vertex -6.177663e+003 -1.979192e+003  1.700000e+003
      vertex -7.379704e+003 -1.200000e+003  1.700000e+003
    endloop
  endfacet
  facet normal  -0.000000e+000  0.000000e+000  1.000000e+000
    outer loop
      vertex -7.379704e+003 -1.200000e+003  1.700000e+003
      vertex -6.177663e+003 -1.979192e+003  1.700000e+003
      vertex -6.956854e+003 -1.200000e+003  1.700000e+003
    endloop
  endfacet
  facet normal -7.071069e-001 -7.071066e-001  0.000000e+000
    outer loop
      vertex -8.605383e+003 -4.000000e+002  1.700000e+003
      vertex -1.100158e+004  1.996194e+003  1.700000e+003
      vertex -8.605383e+003 -4.000000e+002 -1.300000e+003
    endloop
  endfacet
  facet normal -7.071069e-001 -7.071066e-001  0.000000e+000
    outer loop
      vertex -8.605383e+003 -4.000000e+002 -1.300000e+003
      vertex -1.100158e+004  1.996194e+003  1.700000e+003
      vertex -1.100158e+004  1.996194e+003 -1.300000e+003
    endloop
  endfacet
  facet normal  7.071068e-001 -7.071068e-001  0.000000e+000
    outer loop
      vertex -5.399138e+003 -1.626346e+003  1.700000e+003
      vertex -5.399138e+003 -1.626346e+003 -1.300000e+003
      vertex -8.029437e+002  2.969848e+003  1.700000e+003
    endloop
  endfacet
  facet normal  7.071068e-001 -7.071068e-001  0.000000e+000
    outer loop
      vertex -8.029437e+002  2.969848e+003  1.700000e+003
      vertex -5.399138e+003 -1.626346e+003 -1.300000e+003
      vertex -8.029437e+002  2.969848e+003 -1.300000e+003
    endloop
  endfacet
  facet normal  7.071068e-001 -7.071068e-001  0.000000e+000
    outer loop
      vertex -6.389087e+003 -2.616295e+003  1.700000e+003
      vertex -6.389087e+003 -2.616295e+003 -1.300000e+003
      vertex -5.964823e+003 -2.192031e+003  1.700000e+003
    endloop
  endfacet
  facet normal  7.071068e-001 -7.071068e-001  0.000000e+000
    outer loop
      vertex -5.964823e+003 -2.192031e+003  1.700000e+003
      vertex -6.389087e+003 -2.616295e+003 -1.300000e+003
      vertex -5.964823e+003 -2.192031e+003 -1.300000e+003
    endloop
  endfacet
  facet normal -7.071068e-001  7.071068e-001  0.000000e+000
    outer loop
      vertex -5.611270e+003 -1.414214e+003  1.700000e+003
      vertex -1.015076e+003  3.181980e+003  1.700000e+003
      vertex -5.611270e+003 -1.414214e+003 -1.300000e+003
    endloop
  endfacet
  facet normal -7.071068e-001  7.071068e-001  0.000000e+000
    outer loop
      vertex -5.611270e+003 -1.414214e+003 -1.300000e+003
      vertex -1.015076e+003  3.181980e+003  1.700000e+003
      vertex -1.015076e+003  3.181980e+003 -1.300000e+003
    endloop
  endfacet
  facet normal -7.071062e-001  7.071074e-001  0.000000e+000
    outer loop
      vertex -6.389087e+003 -2.192031e+003  1.700000e+003
      vertex -6.176955e+003 -1.979899e+003  1.700000e+003
      vertex -6.389087e+003 -2.192031e+003 -1.300000e+003
    endloop
  endfacet
  facet normal -7.071062e-001  7.071074e-001  0.000000e+000
    outer loop
      vertex -6.389087e+003 -2.192031e+003 -1.300000e+003
      vertex -6.176955e+003 -1.979899e+003  1.700000e+003
      vertex -6.176955e+003 -1.979899e+003 -1.300000e+003
    endloop
  endfacet
  facet normal  7.071069e-001  7.071067e-001  0.000000e+000
    outer loop
      vertex -7.381118e+003 -1.200000e+003  1.700000e+003
      vertex -6.389087e+003 -2.192031e+003  1.700000e+003
      vertex -7.381118e+003 -1.200000e+003 -1.300000e+003
    endloop
  endfacet
  facet normal  7.071069e-001  7.071067e-001  0.000000e+000
    outer loop
      vertex -7.381118e+003 -1.200000e+003 -1.300000e+003
      vertex -6.389087e+003 -2.192031e+003  1.700000e+003
      vertex -6.389087e+003 -2.192031e+003 -1.300000e+003
    endloop
  endfacet
  facet normal  7.071068e-001  7.071068e-001  0.000000e+000
    outer loop
      vertex -1.317731e+004  4.596194e+003  1.700000e+003
      vertex -8.181118e+003 -4.000000e+002  1.700000e+003
      vertex -1.317731e+004  4.596194e+003 -1.300000e+003
    endloop
  endfacet
  facet normal  7.071068e-001  7.071068e-001  0.000000e+000
    outer loop
      vertex -1.317731e+004  4.596194e+003 -1.300000e+003
      vertex -8.181118e+003 -4.000000e+002  1.700000e+003
      vertex -8.181118e+003 -4.000000e+002 -1.300000e+003
    endloop
  endfacet
  facet normal  0.000000e+000  -0.000000e+000  1.000000e+000
    outer loop
      vertex -7.505382e+003 -1.500000e+003  1.700000e+003
      vertex -6.389087e+003 -2.616295e+003  1.700000e+003
      vertex -6.389087e+003 -2.192031e+003  1.700000e+003
    endloop
  endfacet
  facet normal  0.000000e+000  0.000000e+000  1.000000e+000
    outer loop
      vertex -7.505382e+003 -1.500000e+003  1.700000e+003
      vertex -6.389087e+003 -2.192031e+003  1.700000e+003
      vertex -7.381118e+003 -1.200000e+003  1.700000e+003
    endloop
  endfacet
  facet normal  0.000000e+000  0.000000e+000  1.000000e+000
    outer loop
      vertex -7.505382e+003 -1.500000e+003  1.700000e+003
      vertex -7.381118e+003 -1.200000e+003  1.700000e+003
      vertex -1.100158e+004 -1.200000e+003  1.700000e+003
    endloop
  endfacet
  facet normal  0.000000e+000  0.000000e+000  1.000000e+000
    outer loop
      vertex -7.505382e+003 -1.500000e+003  1.700000e+003
      vertex -1.100158e+004 -1.200000e+003  1.700000e+003
      vertex -1.130158e+004 -1.500000e+003  1.700000e+003
    endloop
  endfacet
  facet normal  0.000000e+000  -0.000000e+000  9.999999e-001
    outer loop
      vertex -1.317731e+004  4.596194e+003  1.700000e+003
      vertex -7.096194e+003  1.067731e+004  1.700000e+003
      vertex -7.096194e+003  1.110158e+004  1.700000e+003
    endloop
  endfacet
  facet normal  0.000000e+000  0.000000e+000  1.000000e+000
    outer loop
      vertex -1.317731e+004  4.596194e+003  1.700000e+003
      vertex -7.096194e+003  1.110158e+004  1.700000e+003
      vertex -1.360158e+004  4.596194e+003  1.700000e+003
    endloop
  endfacet
  facet normal  -0.000000e+000  0.000000e+000  9.999999e-001
    outer loop
      vertex -1.317731e+004  4.596194e+003  1.700000e+003
      vertex -1.360158e+004  4.596194e+003  1.700000e+003
      vertex -1.330158e+004  4.296194e+003  1.700000e+003
    endloop
  endfacet
  facet normal  -0.000000e+000  0.000000e+000  1.000000e+000
    outer loop
      vertex -1.317731e+004  4.596194e+003  1.700000e+003
      vertex -1.330158e+004  4.296194e+003  1.700000e+003
      vertex -8.181118e+003 -4.000000e+002  1.700000e+003
    endloop
  endfacet
  facet normal  0.000000e+000  0.000000e+000  1.000000e+000
    outer loop
      vertex -8.181118e+003 -4.000000e+002  1.700000e+003
      vertex -1.330158e+004  4.296194e+003  1.700000e+003
      vertex -1.130158e+004  2.296194e+003  1.700000e+003
    endloop
  endfacet
  facet normal  0.000000e+000  0.000000e+000  1.000000e+000
    outer loop
      vertex -8.181118e+003 -4.000000e+002  1.700000e+003
      vertex -1.130158e+004  2.296194e+003  1.700000e+003
      vertex -1.100158e+004  1.996194e+003  1.700000e+003
    endloop
  endfacet
  facet normal  0.000000e+000  0.000000e+000  1.000000e+000
    outer loop
      vertex -8.181118e+003 -4.000000e+002  1.700000e+003
      vertex -1.100158e+004  1.996194e+003  1.700000e+003
      vertex -8.605383e+003 -4.000000e+002  1.700000e+003
    endloop
  endfacet
  facet normal  0.000000e+000  0.000000e+000  1.000000e+000
    outer loop
      vertex -6.389087e+003 -2.616295e+003  1.700000e+003
      vertex -5.964823e+003 -2.192031e+003  1.700000e+003
      vertex -6.389087e+003 -2.192031e+003  1.700000e+003
    endloop
  endfacet
  facet normal  0.000000e+000  0.000000e+000  1.000000e+000
    outer loop
      vertex -6.389087e+003 -2.192031e+003  1.700000e+003
      vertex -5.964823e+003 -2.192031e+003  1.700000e+003
      vertex -6.176955e+003 -1.979899e+003  1.700000e+003
    endloop
  endfacet
  facet normal  0.000000e+000  0.000000e+000  1.000000e+000
    outer loop
      vertex -1.330158e+004  4.296194e+003  1.700000e+003
      vertex -1.360158e+004  4.596194e+003  1.700000e+003
      vertex -1.330158e+004 -3.500000e+003  1.700000e+003
    endloop
  endfacet
  facet normal  0.000000e+000  0.000000e+000  1.000000e+000
    outer loop
      vertex -1.330158e+004 -3.500000e+003  1.700000e+003
      vertex -1.360158e+004  4.596194e+003  1.700000e+003
      vertex -1.360158e+004 -3.800000e+003  1.700000e+003
    endloop
  endfacet
  facet normal  0.000000e+000  0.000000e+000  1.000000e+000
    outer loop
      vertex -1.330158e+004 -3.500000e+003  1.700000e+003
      vertex -1.360158e+004 -3.800000e+003  1.700000e+003
      vertex -5.505382e+003 -3.500000e+003  1.700000e+003
    endloop
  endfacet
  facet normal  0.000000e+000  0.000000e+000  1.000000e+000
    outer loop
      vertex -5.505382e+003 -3.500000e+003  1.700000e+003
      vertex -1.360158e+004 -3.800000e+003  1.700000e+003
      vertex -5.205382e+003 -3.800000e+003  1.700000e+003
    endloop
  endfacet
  facet normal  0.000000e+000  0.000000e+000  1.000000e+000
    outer loop
      vertex -7.096194e+003  1.067731e+004  1.700000e+003
      vertex -1.013856e+003  4.594975e+003  1.700000e+003
      vertex -7.096194e+003  1.110158e+004  1.700000e+003
    endloop
  endfacet
  facet normal  0.000000e+000  0.000000e+000  1.000000e+000
    outer loop
      vertex -7.096194e+003  1.110158e+004  1.700000e+003
      vertex -1.013856e+003  4.594975e+003  1.700000e+003
      vertex -8.017244e+002  4.807107e+003  1.700000e+003
    endloop
  endfacet
  facet normal  0.000000e+000  0.000000e+000  1.000000e+000
    outer loop
      vertex -1.130158e+004 -1.500000e+003  1.700000e+003
      vertex -1.100158e+004 -1.200000e+003  1.700000e+003
      vertex -1.130158e+004  2.296194e+003  1.700000e+003
    endloop
  endfacet
  facet normal  0.000000e+000  0.000000e+000  1.000000e+000
    outer loop
      vertex -1.130158e+004  2.296194e+003  1.700000e+003
      vertex -1.100158e+004 -1.200000e+003  1.700000e+003
      vertex -1.100158e+004  1.996194e+003  1.700000e+003
    endloop
  endfacet
  facet normal  0.000000e+000  -0.000000e+000  1.000000e+000
    outer loop
      vertex -5.611270e+003 -1.414214e+003  1.700000e+003
      vertex -5.399138e+003 -1.626346e+003  1.700000e+003
      vertex -1.015076e+003  3.181980e+003  1.700000e+003
    endloop
  endfacet
  facet normal  0.000000e+000  0.000000e+000  9.999999e-001
    outer loop
      vertex -1.015076e+003  3.181980e+003  1.700000e+003
      vertex -5.399138e+003 -1.626346e+003  1.700000e+003
      vertex -8.029437e+002  2.969848e+003  1.700000e+003
    endloop
  endfacet
  facet normal  0.000000e+000  0.000000e+000 -1.000000e+000
    outer loop
      vertex -7.505382e+003 -1.500000e+003 -1.300000e+003
      vertex -1.130158e+004 -1.500000e+003 -1.300000e+003
      vertex -1.100158e+004 -1.200000e+003 -1.300000e+003
    endloop
  endfacet
  facet normal  0.000000e+000  0.000000e+000 -1.000000e+000
    outer loop
      vertex -7.505382e+003 -1.500000e+003 -1.300000e+003
      vertex -1.100158e+004 -1.200000e+003 -1.300000e+003
      vertex -7.381118e+003 -1.200000e+003 -1.300000e+003
    endloop
  endfacet
  facet normal  0.000000e+000  -0.000000e+000 -1.000000e+000
    outer loop
      vertex -7.505382e+003 -1.500000e+003 -1.300000e+003
      vertex -7.381118e+003 -1.200000e+003 -1.300000e+003
      vertex -6.389087e+003 -2.192031e+003 -1.300000e+003
    endloop
  endfacet
  facet normal  -0.000000e+000  -0.000000e+000 -1.000000e+000
    outer loop
      vertex -7.505382e+003 -1.500000e+003 -1.300000e+003
      vertex -6.389087e+003 -2.192031e+003 -1.300000e+003
      vertex -6.389087e+003 -2.616295e+003 -1.300000e+003
    endloop
  endfacet
  facet normal  0.000000e+000  0.000000e+000 -1.000000e+000
    outer loop
      vertex -1.317731e+004  4.596194e+003 -1.300000e+003
      vertex -8.181118e+003 -4.000000e+002 -1.300000e+003
      vertex -1.330158e+004  4.296194e+003 -1.300000e+003
    endloop
  endfacet
  facet normal  0.000000e+000  0.000000e+000 -9.999999e-001
    outer loop
      vertex -1.317731e+004  4.596194e+003 -1.300000e+003
      vertex -1.330158e+004  4.296194e+003 -1.300000e+003
      vertex -1.360158e+004  4.596194e+003 -1.300000e+003
    endloop
  endfacet
  facet normal  0.000000e+000  0.000000e+000 -9.999999e-001
    outer loop
      vertex -1.317731e+004  4.596194e+003 -1.300000e+003
      vertex -1.360158e+004  4.596194e+003 -1.300000e+003
      vertex -7.096194e+003  1.110158e+004 -1.300000e+003
    endloop
  endfacet
  facet normal  0.000000e+000  -0.000000e+000 -9.999999e-001
    outer loop
      vertex -1.317731e+004  4.596194e+003 -1.300000e+003
      vertex -7.096194e+003  1.110158e+004 -1.300000e+003
      vertex -7.096194e+003  1.067731e+004 -1.300000e+003
    endloop
  endfacet
  facet normal  0.000000e+000  0.000000e+000 -1.000000e+000
    outer loop
      vertex -8.181118e+003 -4.000000e+002 -1.300000e+003
      vertex -8.605383e+003 -4.000000e+002 -1.300000e+003
      vertex -1.100158e+004  1.996194e+003 -1.300000e+003
    endloop
  endfacet
  facet normal  0.000000e+000  0.000000e+000 -1.000000e+000
    outer loop
      vertex -8.181118e+003 -4.000000e+002 -1.300000e+003
      vertex -1.100158e+004  1.996194e+003 -1.300000e+003
      vertex -1.130158e+004  2.296194e+003 -1.300000e+003
    endloop
  endfacet
  facet normal  0.000000e+000  0.000000e+000 -1.000000e+000
    outer loop
      vertex -8.181118e+003 -4.000000e+002 -1.300000e+003
      vertex -1.130158e+004  2.296194e+003 -1.300000e+003
      vertex -1.330158e+004  4.296194e+003 -1.300000e+003
    endloop
  endfacet
  facet normal  0.000000e+000  0.000000e+000 -1.000000e+000
    outer loop
      vertex -6.389087e+003 -2.616295e+003 -1.300000e+003
      vertex -6.389087e+003 -2.192031e+003 -1.300000e+003
      vertex -5.964823e+003 -2.192031e+003 -1.300000e+003
    endloop
  endfacet
  facet normal  0.000000e+000  0.000000e+000 -1.000000e+000
    outer loop
      vertex -5.964823e+003 -2.192031e+003 -1.300000e+003
      vertex -6.389087e+003 -2.192031e+003 -1.300000e+003
      vertex -6.176955e+003 -1.979899e+003 -1.300000e+003
    endloop
  endfacet
  facet normal  0.000000e+000  0.000000e+000 -1.000000e+000
    outer loop
      vertex -1.330158e+004  4.296194e+003 -1.300000e+003
      vertex -1.330158e+004 -3.500000e+003 -1.300000e+003
      vertex -1.360158e+004  4.596194e+003 -1.300000e+003
    endloop
  endfacet
  facet normal  0.000000e+000  0.000000e+000 -1.000000e+000
    outer loop
      vertex -1.360158e+004  4.596194e+003 -1.300000e+003
      vertex -1.330158e+004 -3.500000e+003 -1.300000e+003
      vertex -1.360158e+004 -3.800000e+003 -1.300000e+003
    endloop
  endfacet
  facet normal  -0.000000e+000  0.000000e+000 -1.000000e+000
    outer loop
      vertex -1.330158e+004 -3.500000e+003 -1.300000e+003
      vertex -5.505382e+003 -3.500000e+003 -1.300000e+003
      vertex -1.360158e+004 -3.800000e+003 -1.300000e+003
    endloop
  endfacet
  facet normal  0.000000e+000  0.000000e+000 -1.000000e+000
    outer loop
      vertex -1.360158e+004 -3.800000e+003 -1.300000e+003
      vertex -5.505382e+003 -3.500000e+003 -1.300000e+003
      vertex -5.205382e+003 -3.800000e+003 -1.300000e+003
    endloop
  endfacet
  facet normal  0.000000e+000  0.000000e+000 -1.000000e+000
    outer loop
      vertex -7.096194e+003  1.067731e+004 -1.300000e+003
      vertex -7.096194e+003  1.110158e+004 -1.300000e+003
      vertex -1.013856e+003  4.594975e+003 -1.300000e+003
    endloop
  endfacet
  facet normal  0.000000e+000  0.000000e+000 -1.000000e+000
    outer loop
      vertex -1.013856e+003  4.594975e+003 -1.300000e+003
      vertex -7.096194e+003  1.110158e+004 -1.300000e+003
      vertex -8.017244e+002  4.807107e+003 -1.300000e+003
    endloop
  endfacet
  facet normal  0.000000e+000  0.000000e+000 -1.000000e+000
    outer loop
      vertex -1.130158e+004 -1.500000e+003 -1.300000e+003
      vertex -1.130158e+004  2.296194e+003 -1.300000e+003
      vertex -1.100158e+004 -1.200000e+003 -1.300000e+003
    endloop
  endfacet
  facet normal  0.000000e+000  0.000000e+000 -1.000000e+000
    outer loop
      vertex -1.100158e+004 -1.200000e+003 -1.300000e+003
      vertex -1.130158e+004  2.296194e+003 -1.300000e+003
      vertex -1.100158e+004  1.996194e+003 -1.300000e+003
    endloop
  endfacet
  facet normal  0.000000e+000  0.000000e+000 -1.000000e+000
    outer loop
      vertex -5.611270e+003 -1.414214e+003 -1.300000e+003
      vertex -1.015076e+003  3.181980e+003 -1.300000e+003
      vertex -5.399138e+003 -1.626346e+003 -1.300000e+003
    endloop
  endfacet
  facet normal  0.000000e+000  0.000000e+000 -1.000000e+000
    outer loop
      vertex -5.399138e+003 -1.626346e+003 -1.300000e+003
      vertex -1.015076e+003  3.181980e+003 -1.300000e+003
      vertex -8.029437e+002  2.969848e+003 -1.300000e+003
    endloop
  endfacet
  facet normal  7.071070e-001  7.071066e-001  0.000000e+000
    outer loop
      vertex -6.176955e+003 -1.979899e+003  1.700000e+003
      vertex -5.964823e+003 -2.192031e+003  1.700000e+003
      vertex -6.176955e+003 -1.979899e+003 -1.300000e+003
    endloop
  endfacet
  facet normal  7.071070e-001  7.071066e-001  0.000000e+000
    outer loop
      vertex -6.176955e+003 -1.979899e+003 -1.300000e+003
      vertex -5.964823e+003 -2.192031e+003  1.700000e+003
      vertex -5.964823e+003 -2.192031e+003 -1.300000e+003
    endloop
  endfacet
  facet normal -7.071062e-001 -7.071074e-001  0.000000e+000
    outer loop
      vertex -5.399138e+003 -1.626346e+003  1.700000e+003
      vertex -5.611270e+003 -1.414214e+003  1.700000e+003
      vertex -5.399138e+003 -1.626346e+003 -1.300000e+003
    endloop
  endfacet
  facet normal -7.071062e-001 -7.071074e-001  0.000000e+000
    outer loop
      vertex -5.399138e+003 -1.626346e+003 -1.300000e+003
      vertex -5.611270e+003 -1.414214e+003  1.700000e+003
      vertex -5.611270e+003 -1.414214e+003 -1.300000e+003
    endloop
  endfacet
  facet normal  0.000000e+000 -1.000000e+000  0.000000e+000
    outer loop
      vertex -8.181118e+003 -4.000000e+002  1.700000e+003
      vertex -8.605383e+003 -4.000000e+002  1.700000e+003
      vertex -8.181118e+003 -4.000000e+002 -1.300000e+003
    endloop
  endfacet
  facet normal  0.000000e+000 -1.000000e+000  0.000000e+000
    outer loop
      vertex -8.181118e+003 -4.000000e+002 -1.300000e+003
      vertex -8.605383e+003 -4.000000e+002  1.700000e+003
      vertex -8.605383e+003 -4.000000e+002 -1.300000e+003
    endloop
  endfacet
  facet normal  0.000000e+000 -1.000000e+000  0.000000e+000
    outer loop
      vertex -1.130158e+004 -1.500000e+003  1.700000e+003
      vertex -1.130158e+004 -1.500000e+003 -1.300000e+003
      vertex -7.505382e+003 -1.500000e+003  1.700000e+003
    endloop
  endfacet
  facet normal  0.000000e+000 -1.000000e+000  -0.000000e+000
    outer loop
      vertex -7.505382e+003 -1.500000e+003  1.700000e+003
      vertex -1.130158e+004 -1.500000e+003 -1.300000e+003
      vertex -7.505382e+003 -1.500000e+003 -1.300000e+003
    endloop
  endfacet
  facet normal -1.000000e+000  0.000000e+000  0.000000e+000
    outer loop
      vertex -1.130158e+004  2.296194e+003  1.700000e+003
      vertex -1.130158e+004  2.296194e+003 -1.300000e+003
      vertex -1.130158e+004 -1.500000e+003  1.700000e+003
    endloop
  endfacet
  facet normal -1.000000e+000  0.000000e+000  0.000000e+000
    outer loop
      vertex -1.130158e+004 -1.500000e+003  1.700000e+003
      vertex -1.130158e+004  2.296194e+003 -1.300000e+003
      vertex -1.130158e+004 -1.500000e+003 -1.300000e+003
    endloop
  endfacet
  facet normal -7.071068e-001 -7.071066e-001  0.000000e+000
    outer loop
      vertex -6.389087e+003 -2.616295e+003  1.700000e+003
      vertex -7.505382e+003 -1.500000e+003  1.700000e+003
      vertex -6.389087e+003 -2.616295e+003 -1.300000e+003
    endloop
  endfacet
  facet normal -7.071068e-001 -7.071066e-001  0.000000e+000
    outer loop
      vertex -6.389087e+003 -2.616295e+003 -1.300000e+003
      vertex -7.505382e+003 -1.500000e+003  1.700000e+003
      vertex -7.505382e+003 -1.500000e+003 -1.300000e+003
    endloop
  endfacet
  facet normal -7.071068e-001 -7.071068e-001  0.000000e+000
    outer loop
      vertex -1.130158e+004  2.296194e+003  1.700000e+003
      vertex -1.330158e+004  4.296194e+003  1.700000e+003
      vertex -1.130158e+004  2.296194e+003 -1.300000e+003
    endloop
  endfacet
  facet normal -7.071068e-001 -7.071068e-001  0.000000e+000
    outer loop
      vertex -1.130158e+004  2.296194e+003 -1.300000e+003
      vertex -1.330158e+004  4.296194e+003  1.700000e+003
      vertex -1.330158e+004  4.296194e+003 -1.300000e+003
    endloop
  endfacet
  facet normal  7.071072e-001 -7.071064e-001  0.000000e+000
    outer loop
      vertex -8.017244e+002  4.807107e+003 -1.300000e+003
      vertex -8.017244e+002  4.807107e+003  1.700000e+003
      vertex -1.013856e+003  4.594975e+003 -1.300000e+003
    endloop
  endfacet
  facet normal  7.071072e-001 -7.071064e-001  0.000000e+000
    outer loop
      vertex -1.013856e+003  4.594975e+003 -1.300000e+003
      vertex -8.017244e+002  4.807107e+003  1.700000e+003
      vertex -1.013856e+003  4.594975e+003  1.700000e+003
    endloop
  endfacet
  facet normal -7.071068e-001 -7.071067e-001  0.000000e+000
    outer loop
      vertex -1.013856e+003  4.594975e+003  1.700000e+003
      vertex -7.096194e+003  1.067731e+004  1.700000e+003
      vertex -1.013856e+003  4.594975e+003 -1.300000e+003
    endloop
  endfacet
  facet normal -7.071068e-001 -7.071067e-001  0.000000e+000
    outer loop
      vertex -1.013856e+003  4.594975e+003 -1.300000e+003
      vertex -7.096194e+003  1.067731e+004  1.700000e+003
      vertex -7.096194e+003  1.067731e+004 -1.300000e+003
    endloop
  endfacet
  facet normal  7.071068e-001 -7.071068e-001  0.000000e+000
    outer loop
      vertex -7.096194e+003  1.067731e+004  1.700000e+003
      vertex -1.317731e+004  4.596194e+003  1.700000e+003
      vertex -7.096194e+003  1.067731e+004 -1.300000e+003
    endloop
  endfacet
  facet normal  7.071068e-001 -7.071068e-001  0.000000e+000
    outer loop
      vertex -7.096194e+003  1.067731e+004 -1.300000e+003
      vertex -1.317731e+004  4.596194e+003  1.700000e+003
      vertex -1.317731e+004  4.596194e+003 -1.300000e+003
    endloop
  endfacet
  facet normal  7.071067e-001  7.071068e-001  0.000000e+000
    outer loop
      vertex -7.096194e+003  1.110158e+004  1.700000e+003
      vertex -8.017244e+002  4.807107e+003  1.700000e+003
      vertex -7.096194e+003  1.110158e+004 -1.300000e+003
    endloop
  endfacet
  facet normal  7.071067e-001  7.071068e-001  0.000000e+000
    outer loop
      vertex -7.096194e+003  1.110158e+004 -1.300000e+003
      vertex -8.017244e+002  4.807107e+003  1.700000e+003
      vertex -8.017244e+002  4.807107e+003 -1.300000e+003
    endloop
  endfacet
  facet normal  7.071068e-001  7.071066e-001  0.000000e+000
    outer loop
      vertex -1.015076e+003  3.181980e+003 -1.300000e+003
      vertex -1.015076e+003  3.181980e+003  1.700000e+003
      vertex -8.029437e+002  2.969848e+003 -1.300000e+003
    endloop
  endfacet
  facet normal  7.071068e-001  7.071066e-001  -0.000000e+000
    outer loop
      vertex -8.029437e+002  2.969848e+003 -1.300000e+003
      vertex -1.015076e+003  3.181980e+003  1.700000e+003
      vertex -8.029437e+002  2.969848e+003  1.700000e+003
    endloop
  endfacet
  facet normal -1.000000e+000  -0.000000e+000  0.000000e+000
    outer loop
      vertex -1.360158e+004 -3.800000e+003  1.700000e+003
      vertex -1.360158e+004  4.596194e+003  1.700000e+003
      vertex -1.360158e+004 -3.800000e+003 -1.300000e+003
    endloop
  endfacet
  facet normal -1.000000e+000  0.000000e+000  0.000000e+000
    outer loop
      vertex -1.360158e+004 -3.800000e+003 -1.300000e+003
      vertex -1.360158e+004  4.596194e+003  1.700000e+003
      vertex -1.360158e+004  4.596194e+003 -1.300000e+003
    endloop
  endfacet
  facet normal  9.999999e-001  -0.000000e+000  0.000000e+000
    outer loop
      vertex -1.330158e+004  4.296194e+003  1.700000e+003
      vertex -1.330158e+004 -3.500000e+003  1.700000e+003
      vertex -1.330158e+004  4.296194e+003 -1.300000e+003
    endloop
  endfacet
  facet normal  9.999999e-001  0.000000e+000  0.000000e+000
    outer loop
      vertex -1.330158e+004  4.296194e+003 -1.300000e+003
      vertex -1.330158e+004 -3.500000e+003  1.700000e+003
      vertex -1.330158e+004 -3.500000e+003 -1.300000e+003
    endloop
  endfacet
  facet normal -7.071068e-001  7.071068e-001  0.000000e+000
    outer loop
      vertex -1.360158e+004  4.596194e+003  1.700000e+003
      vertex -7.096194e+003  1.110158e+004  1.700000e+003
      vertex -1.360158e+004  4.596194e+003 -1.300000e+003
    endloop
  endfacet
  facet normal -7.071068e-001  7.071068e-001  0.000000e+000
    outer loop
      vertex -1.360158e+004  4.596194e+003 -1.300000e+003
      vertex -7.096194e+003  1.110158e+004  1.700000e+003
      vertex -7.096194e+003  1.110158e+004 -1.300000e+003
    endloop
  endfacet
  facet normal  0.000000e+000 -1.000000e+000  0.000000e+000
    outer loop
      vertex -5.205382e+003 -3.800000e+003  1.700000e+003
      vertex -1.360158e+004 -3.800000e+003  1.700000e+003
      vertex -5.205382e+003 -3.800000e+003 -1.300000e+003
    endloop
  endfacet
  facet normal  0.000000e+000 -1.000000e+000  0.000000e+000
    outer loop
      vertex -5.205382e+003 -3.800000e+003 -1.300000e+003
      vertex -1.360158e+004 -3.800000e+003  1.700000e+003
      vertex -1.360158e+004 -3.800000e+003 -1.300000e+003
    endloop
  endfacet
  facet normal  0.000000e+000  9.999999e-001  0.000000e+000
    outer loop
      vertex -1.330158e+004 -3.500000e+003  1.700000e+003
      vertex -5.505382e+003 -3.500000e+003  1.700000e+003
      vertex -1.330158e+004 -3.500000e+003 -1.300000e+003
    endloop
  endfacet
  facet normal  0.000000e+000  9.999999e-001  0.000000e+000
    outer loop
      vertex -1.330158e+004 -3.500000e+003 -1.300000e+003
      vertex -5.505382e+003 -3.500000e+003  1.700000e+003
      vertex -5.505382e+003 -3.500000e+003 -1.300000e+003
    endloop
  endfacet
  facet normal  7.071068e-001  7.071068e-001  -0.000000e+000
    outer loop
      vertex -5.205382e+003 -3.800000e+003  1.700000e+003
      vertex -5.205382e+003 -3.800000e+003 -1.300000e+003
      vertex -5.505382e+003 -3.500000e+003  1.700000e+003
    endloop
  endfacet
  facet normal  7.071068e-001  7.071068e-001  0.000000e+000
    outer loop
      vertex -5.505382e+003 -3.500000e+003  1.700000e+003
      vertex -5.205382e+003 -3.800000e+003 -1.300000e+003
      vertex -5.505382e+003 -3.500000e+003 -1.300000e+003
    endloop
  endfacet
  facet normal  -0.000000e+000  0.000000e+000  1.000000e+000
    outer loop
      vertex -2.570711e+003  9.544527e+003  1.700000e+003
      vertex -3.134982e+003  8.980256e+003  1.700000e+003
      vertex  2.872817e+003  4.101000e+003  1.700000e+003
    endloop
  endfacet
  facet normal  0.000000e+000  0.000000e+000  1.000000e+000
    outer loop
      vertex  2.872817e+003  4.101000e+003  1.700000e+003
      vertex -3.134982e+003  8.980256e+003  1.700000e+003
      vertex  1.038167e+003  4.807107e+003  1.700000e+003
    endloop
  endfacet
  facet normal  0.000000e+000  0.000000e+000  1.000000e+000
    outer loop
      vertex  2.872817e+003  4.101000e+003  1.700000e+003
      vertex  1.038167e+003  4.807107e+003  1.700000e+003
      vertex  3.320607e+002  4.101000e+003  1.700000e+003
    endloop
  endfacet
  facet normal  0.000000e+000  -0.000000e+000 -1.000000e+000
    outer loop
      vertex  3.320607e+002  4.101000e+003 -1.300000e+003
      vertex  1.038167e+003  4.807107e+003 -1.300000e+003
      vertex  2.872817e+003  4.101000e+003 -1.300000e+003
    endloop
  endfacet
  facet normal  0.000000e+000  0.000000e+000 -1.000000e+000
    outer loop
      vertex  2.872817e+003  4.101000e+003 -1.300000e+003
      vertex  1.038167e+003  4.807107e+003 -1.300000e+003
      vertex -3.134982e+003  8.980256e+003 -1.300000e+003
    endloop
  endfacet
  facet normal  0.000000e+000  0.000000e+000 -1.000000e+000
    outer loop
      vertex  2.872817e+003  4.101000e+003 -1.300000e+003
      vertex -3.134982e+003  8.980256e+003 -1.300000e+003
      vertex -2.570711e+003  9.544527e+003 -1.300000e+003
    endloop
  endfacet
  facet normal  7.071068e-001  7.071068e-001  -0.000000e+000
    outer loop
      vertex  2.872817e+003  4.101000e+003  1.700000e+003
      vertex  2.872817e+003  4.101000e+003 -1.300000e+003
      vertex -2.570711e+003  9.544527e+003  1.700000e+003
    endloop
  endfacet
  facet normal  7.071068e-001  7.071068e-001  0.000000e+000
    outer loop
      vertex -2.570711e+003  9.544527e+003  1.700000e+003
      vertex  2.872817e+003  4.101000e+003 -1.300000e+003
      vertex -2.570711e+003  9.544527e+003 -1.300000e+003
    endloop
  endfacet
  facet normal  0.000000e+000 -1.000000e+000  0.000000e+000
    outer loop
      vertex  3.320607e+002  4.101000e+003 -1.300000e+003
      vertex  2.872817e+003  4.101000e+003 -1.300000e+003
      vertex  3.320607e+002  4.101000e+003  1.700000e+003
    endloop
  endfacet
  facet normal  0.000000e+000 -1.000000e+000  0.000000e+000
    outer loop
      vertex  3.320607e+002  4.101000e+003  1.700000e+003
      vertex  2.872817e+003  4.101000e+003 -1.300000e+003
      vertex  2.872817e+003  4.101000e+003  1.700000e+003
    endloop
  endfacet
  facet normal -7.071068e-001  7.071067e-001  0.000000e+000
    outer loop
      vertex  1.038167e+003  4.807107e+003 -1.300000e+003
      vertex  3.320607e+002  4.101000e+003 -1.300000e+003
      vertex  1.038167e+003  4.807107e+003  1.700000e+003
    endloop
  endfacet
  facet normal -7.071068e-001  7.071067e-001  0.000000e+000
    outer loop
      vertex  1.038167e+003  4.807107e+003  1.700000e+003
      vertex  3.320607e+002  4.101000e+003 -1.300000e+003
      vertex  3.320607e+002  4.101000e+003  1.700000e+003
    endloop
  endfacet
  facet normal -7.071067e-001 -7.071068e-001  0.000000e+000
    outer loop
      vertex -3.134982e+003  8.980256e+003  1.700000e+003
      vertex -3.134982e+003  8.980256e+003 -1.300000e+003
      vertex  1.038167e+003  4.807107e+003  1.700000e+003
    endloop
  endfacet
  facet normal -7.071067e-001 -7.071068e-001  -0.000000e+000
    outer loop
      vertex  1.038167e+003  4.807107e+003  1.700000e+003
      vertex -3.134982e+003  8.980256e+003 -1.300000e+003
      vertex  1.038167e+003  4.807107e+003 -1.300000e+003
    endloop
  endfacet
  facet normal -7.071069e-001  7.071066e-001  0.000000e+000
    outer loop
      vertex -2.570711e+003  9.544527e+003 -1.300000e+003
      vertex -3.134982e+003  8.980256e+003 -1.300000e+003
      vertex -2.570711e+003  9.544527e+003  1.700000e+003
    endloop
  endfacet
  facet normal -7.071069e-001  7.071066e-001  0.000000e+000
    outer loop
      vertex -2.570711e+003  9.544527e+003  1.700000e+003
      vertex -3.134982e+003  8.980256e+003 -1.300000e+003
      vertex -3.134982e+003  8.980256e+003  1.700000e+003
    endloop
  endfacet
  facet normal  0.000000e+000  -0.000000e+000 -1.000000e+000
    outer loop
      vertex -3.136396e+003  8.980256e+003 -1.300000e+003
      vertex -2.570711e+003  9.970206e+003 -1.300000e+003
      vertex -2.570711e+003  9.545941e+003 -1.300000e+003
    endloop
  endfacet
  facet normal  0.000000e+000  0.000000e+000 -1.000000e+000
    outer loop
      vertex -2.570711e+003  9.545941e+003 -1.300000e+003
      vertex -2.570711e+003  9.970206e+003 -1.300000e+003
      vertex  3.299495e+003  4.100000e+003 -1.300000e+003
    endloop
  endfacet
  facet normal  0.000000e+000  0.000000e+000 -1.000000e+000
    outer loop
      vertex -2.570711e+003  9.545941e+003 -1.300000e+003
      vertex  3.299495e+003  4.100000e+003 -1.300000e+003
      vertex  2.875231e+003  4.100000e+003 -1.300000e+003
    endloop
  endfacet
  facet normal  0.000000e+000  0.000000e+000 -1.000000e+000
    outer loop
      vertex -2.570711e+003  9.970206e+003 -1.300000e+003
      vertex -3.136396e+003  8.980256e+003 -1.300000e+003
      vertex -3.560660e+003  8.980256e+003 -1.300000e+003
    endloop
  endfacet
  facet normal  0.000000e+000  0.000000e+000 -1.000000e+000
    outer loop
      vertex -3.560660e+003  8.980256e+003 -1.300000e+003
      vertex -3.136396e+003  8.980256e+003 -1.300000e+003
      vertex  1.036753e+003  4.807107e+003 -1.300000e+003
    endloop
  endfacet
  facet normal  0.000000e+000  0.000000e+000 -9.999999e-001
    outer loop
      vertex -3.560660e+003  8.980256e+003 -1.300000e+003
      vertex  1.036753e+003  4.807107e+003 -1.300000e+003
      vertex  6.124892e+002  4.807107e+003 -1.300000e+003
    endloop
  endfacet
  facet normal  0.000000e+000  -0.000000e+000 -1.000000e+000
    outer loop
      vertex  6.124892e+002  4.807107e+003 -1.300000e+003
      vertex  1.036753e+003  4.807107e+003 -1.300000e+003
      vertex -9.461761e+001  3.675736e+003 -1.300000e+003
    endloop
  endfacet
  facet normal  0.000000e+000  0.000000e+000 -1.000000e+000
    outer loop
      vertex  6.124892e+002  4.807107e+003 -1.300000e+003
      vertex -9.461761e+001  3.675736e+003 -1.300000e+003
      vertex -3.067496e+002  3.887868e+003 -1.300000e+003
    endloop
  endfacet
  facet normal  0.000000e+000  0.000000e+000  1.000000e+000
    outer loop
      vertex  2.875231e+003  4.100000e+003  1.700000e+003
      vertex  3.299495e+003  4.100000e+003  1.700000e+003
      vertex -2.570711e+003  9.545941e+003  1.700000e+003
    endloop
  endfacet
  facet normal  -0.000000e+000  0.000000e+000  1.000000e+000
    outer loop
      vertex -2.570711e+003  9.545941e+003  1.700000e+003
      vertex  3.299495e+003  4.100000e+003  1.700000e+003
      vertex -2.570711e+003  9.970206e+003  1.700000e+003
    endloop
  endfacet
  facet normal  0.000000e+000  0.000000e+000  1.000000e+000
    outer loop
      vertex -2.570711e+003  9.545941e+003  1.700000e+003
      vertex -2.570711e+003  9.970206e+003  1.700000e+003
      vertex -3.136396e+003  8.980256e+003  1.700000e+003
    endloop
  endfacet
  facet normal  0.000000e+000  -0.000000e+000  1.000000e+000
    outer loop
      vertex -3.136396e+003  8.980256e+003  1.700000e+003
      vertex -2.570711e+003  9.970206e+003  1.700000e+003
      vertex -3.560660e+003  8.980256e+003  1.700000e+003
    endloop
  endfacet
  facet normal  -0.000000e+000  0.000000e+000  1.000000e+000
    outer loop
      vertex -3.136396e+003  8.980256e+003  1.700000e+003
      vertex -3.560660e+003  8.980256e+003  1.700000e+003
      vertex  1.036753e+003  4.807107e+003  1.700000e+003
    endloop
  endfacet
  facet normal  0.000000e+000  0.000000e+000  9.999999e-001
    outer loop
      vertex  1.036753e+003  4.807107e+003  1.700000e+003
      vertex -3.560660e+003  8.980256e+003  1.700000e+003
      vertex  6.124892e+002  4.807107e+003  1.700000e+003
    endloop
  endfacet
  facet normal  -0.000000e+000  0.000000e+000  1.000000e+000
    outer loop
      vertex  1.036753e+003  4.807107e+003  1.700000e+003
      vertex  6.124892e+002  4.807107e+003  1.700000e+003
      vertex -9.461761e+001  3.675736e+003  1.700000e+003
    endloop
  endfacet
  facet normal  0.000000e+000  -0.000000e+000  1.000000e+000
    outer loop
      vertex -9.461761e+001  3.675736e+003  1.700000e+003
      vertex  6.124892e+002  4.807107e+003  1.700000e+003
      vertex -3.067496e+002  3.887868e+003  1.700000e+003
    endloop
  endfacet
  facet normal -7.071068e-001  7.071067e-001  0.000000e+000
    outer loop
      vertex -3.067496e+002  3.887868e+003 -1.300000e+003
      vertex -3.067496e+002  3.887868e+003  1.700000e+003
      vertex  6.124892e+002  4.807107e+003 -1.300000e+003
    endloop
  endfacet
  facet normal -7.071068e-001  7.071067e-001  0.000000e+000
    outer loop
      vertex  6.124892e+002  4.807107e+003 -1.300000e+003
      vertex -3.067496e+002  3.887868e+003  1.700000e+003
      vertex  6.124892e+002  4.807107e+003  1.700000e+003
    endloop
  endfacet
  facet normal -7.071068e-001 -7.071066e-001  0.000000e+000
    outer loop
      vertex -9.461761e+001  3.675736e+003  1.700000e+003
      vertex -3.067496e+002  3.887868e+003  1.700000e+003
      vertex -9.461761e+001  3.675736e+003 -1.300000e+003
    endloop
  endfacet
  facet normal -7.071068e-001 -7.071066e-001  0.000000e+000
    outer loop
      vertex -9.461761e+001  3.675736e+003 -1.300000e+003
      vertex -3.067496e+002  3.887868e+003  1.700000e+003
      vertex -3.067496e+002  3.887868e+003 -1.300000e+003
    endloop
  endfacet
  facet normal  0.000000e+000 -1.000000e+000  0.000000e+000
    outer loop
      vertex  2.875231e+003  4.100000e+003 -1.300000e+003
      vertex  3.299495e+003  4.100000e+003 -1.300000e+003
      vertex  2.875231e+003  4.100000e+003  1.700000e+003
    endloop
  endfacet
  facet normal  0.000000e+000 -1.000000e+000  0.000000e+000
    outer loop
      vertex  2.875231e+003  4.100000e+003  1.700000e+003
      vertex  3.299495e+003  4.100000e+003 -1.300000e+003
      vertex  3.299495e+003  4.100000e+003  1.700000e+003
    endloop
  endfacet
  facet normal -7.071068e-001 -7.071068e-001  0.000000e+000
    outer loop
      vertex -2.570711e+003  9.545941e+003  1.700000e+003
      vertex -2.570711e+003  9.545941e+003 -1.300000e+003
      vertex  2.875231e+003  4.100000e+003  1.700000e+003
    endloop
  endfacet
  facet normal -7.071068e-001 -7.071068e-001  -0.000000e+000
    outer loop
      vertex  2.875231e+003  4.100000e+003  1.700000e+003
      vertex -2.570711e+003  9.545941e+003 -1.300000e+003
      vertex  2.875231e+003  4.100000e+003 -1.300000e+003
    endloop
  endfacet
  facet normal  7.071069e-001 -7.071066e-001  0.000000e+000
    outer loop
      vertex -3.136396e+003  8.980256e+003 -1.300000e+003
      vertex -2.570711e+003  9.545941e+003 -1.300000e+003
      vertex -3.136396e+003  8.980256e+003  1.700000e+003
    endloop
  endfacet
  facet normal  7.071069e-001 -7.071066e-001  0.000000e+000
    outer loop
      vertex -3.136396e+003  8.980256e+003  1.700000e+003
      vertex -2.570711e+003  9.545941e+003 -1.300000e+003
      vertex -2.570711e+003  9.545941e+003  1.700000e+003
    endloop
  endfacet
  facet normal  7.071067e-001  7.071068e-001  -0.000000e+000
    outer loop
      vertex  1.036753e+003  4.807107e+003  1.700000e+003
      vertex  1.036753e+003  4.807107e+003 -1.300000e+003
      vertex -3.136396e+003  8.980256e+003  1.700000e+003
    endloop
  endfacet
  facet normal  7.071067e-001  7.071068e-001  0.000000e+000
    outer loop
      vertex -3.136396e+003  8.980256e+003  1.700000e+003
      vertex  1.036753e+003  4.807107e+003 -1.300000e+003
      vertex -3.136396e+003  8.980256e+003 -1.300000e+003
    endloop
  endfacet
  facet normal  7.071069e-001 -7.071067e-001  0.000000e+000
    outer loop
      vertex -9.461761e+001  3.675736e+003 -1.300000e+003
      vertex  1.036753e+003  4.807107e+003 -1.300000e+003
      vertex -9.461761e+001  3.675736e+003  1.700000e+003
    endloop
  endfacet
  facet normal  7.071069e-001 -7.071067e-001  0.000000e+000
    outer loop
      vertex -9.461761e+001  3.675736e+003  1.700000e+003
      vertex  1.036753e+003  4.807107e+003 -1.300000e+003
      vertex  1.036753e+003  4.807107e+003  1.700000e+003
    endloop
  endfacet
  facet normal -7.071067e-001 -7.071068e-001  0.000000e+000
    outer loop
      vertex -3.560660e+003  8.980256e+003  1.700000e+003
      vertex -3.560660e+003  8.980256e+003 -1.300000e+003
      vertex  6.124892e+002  4.807107e+003  1.700000e+003
    endloop
  endfacet
  facet normal -7.071067e-001 -7.071068e-001  -0.000000e+000
    outer loop
      vertex  6.124892e+002  4.807107e+003  1.700000e+003
      vertex -3.560660e+003  8.980256e+003 -1.300000e+003
      vertex  6.124892e+002  4.807107e+003 -1.300000e+003
    endloop
  endfacet
  facet normal -7.071070e-001  7.071065e-001  0.000000e+000
    outer loop
      vertex -2.570711e+003  9.970206e+003 -1.300000e+003
      vertex -3.560660e+003  8.980256e+003 -1.300000e+003
      vertex -2.570711e+003  9.970206e+003  1.700000e+003
    endloop
  endfacet
  facet normal -7.071070e-001  7.071065e-001  0.000000e+000
    outer loop
      vertex -2.570711e+003  9.970206e+003  1.700000e+003
      vertex -3.560660e+003  8.980256e+003 -1.300000e+003
      vertex -3.560660e+003  8.980256e+003  1.700000e+003
    endloop
  endfacet
  facet normal  7.071068e-001  7.071068e-001  -0.000000e+000
    outer loop
      vertex  3.299495e+003  4.100000e+003  1.700000e+003
      vertex  3.299495e+003  4.100000e+003 -1.300000e+003
      vertex -2.570711e+003  9.970206e+003  1.700000e+003
    endloop
  endfacet
  facet normal  7.071068e-001  7.071068e-001  0.000000e+000
    outer loop
      vertex -2.570711e+003  9.970206e+003  1.700000e+003
      vertex  3.299495e+003  4.100000e+003 -1.300000e+003
      vertex -2.570711e+003  9.970206e+003 -1.300000e+003
    endloop
  endfacet
  facet normal  7.071068e-001 -7.071067e-001  0.000000e+000
    outer loop
      vertex -1.014564e+003  4.594268e+003 -1.300000e+003
      vertex -1.014564e+003  4.594268e+003  1.700000e+003
      vertex -1.720256e+003  3.888575e+003 -1.300000e+003
    endloop
  endfacet
  facet normal  7.071068e-001 -7.071067e-001  0.000000e+000
    outer loop
      vertex -1.720256e+003  3.888575e+003 -1.300000e+003
      vertex -1.014564e+003  4.594268e+003  1.700000e+003
      vertex -1.720256e+003  3.888575e+003  1.700000e+003
    endloop
  endfacet
  facet normal  7.071069e-001 -7.071066e-001  0.000000e+000
    outer loop
      vertex -3.134470e+003  5.302789e+003 -1.300000e+003
      vertex -3.134470e+003  5.302789e+003  1.700000e+003
      vertex -3.841576e+003  4.595682e+003 -1.300000e+003
    endloop
  endfacet
  facet normal  7.071069e-001 -7.071066e-001  0.000000e+000
    outer loop
      vertex -3.841576e+003  4.595682e+003 -1.300000e+003
      vertex -3.134470e+003  5.302789e+003  1.700000e+003
      vertex -3.841576e+003  4.595682e+003  1.700000e+003
    endloop
  endfacet
  facet normal  7.071064e-001 -7.071072e-001  0.000000e+000
    outer loop
      vertex -3.842283e+003  4.594975e+003 -1.300000e+003
      vertex -3.842283e+003  4.594975e+003  1.700000e+003
      vertex -4.054416e+003  4.382843e+003 -1.300000e+003
    endloop
  endfacet
  facet normal  7.071064e-001 -7.071072e-001  0.000000e+000
    outer loop
      vertex -4.054416e+003  4.382843e+003 -1.300000e+003
      vertex -3.842283e+003  4.594975e+003  1.700000e+003
      vertex -4.054416e+003  4.382843e+003  1.700000e+003
    endloop
  endfacet
  facet normal -7.071068e-001  7.071068e-001  0.000000e+000
    outer loop
      vertex -3.347309e+003  3.675736e+003 -1.300000e+003
      vertex -3.347309e+003  3.675736e+003  1.700000e+003
      vertex -3.135177e+003  3.887868e+003 -1.300000e+003
    endloop
  endfacet
  facet normal -7.071068e-001  7.071068e-001  0.000000e+000
    outer loop
      vertex -3.135177e+003  3.887868e+003 -1.300000e+003
      vertex -3.347309e+003  3.675736e+003  1.700000e+003
      vertex -3.135177e+003  3.887868e+003  1.700000e+003
    endloop
  endfacet
  facet normal  7.071069e-001  7.071067e-001  0.000000e+000
    outer loop
      vertex -2.427875e+003  3.181980e+003 -1.300000e+003
      vertex -2.427875e+003  3.181980e+003  1.700000e+003
      vertex -1.722182e+003  2.476288e+003 -1.300000e+003
    endloop
  endfacet
  facet normal  7.071069e-001  7.071067e-001  -0.000000e+000
    outer loop
      vertex -1.722182e+003  2.476288e+003 -1.300000e+003
      vertex -2.427875e+003  3.181980e+003  1.700000e+003
      vertex -1.722182e+003  2.476288e+003  1.700000e+003
    endloop
  endfacet
  facet normal  7.071068e-001  7.071068e-001  0.000000e+000
    outer loop
      vertex -7.096194e+003  1.067590e+004  1.700000e+003
      vertex -1.014564e+003  4.594268e+003  1.700000e+003
      vertex -7.096194e+003  1.067590e+004 -1.300000e+003
    endloop
  endfacet
  facet normal  7.071068e-001  7.071068e-001  0.000000e+000
    outer loop
      vertex -7.096194e+003  1.067590e+004 -1.300000e+003
      vertex -1.014564e+003  4.594268e+003  1.700000e+003
      vertex -1.014564e+003  4.594268e+003 -1.300000e+003
    endloop
  endfacet
  facet normal -7.071068e-001 -7.071068e-001  0.000000e+000
    outer loop
      vertex -3.841576e+003  4.595682e+003  1.700000e+003
      vertex -7.096194e+003  7.850299e+003  1.700000e+003
      vertex -3.841576e+003  4.595682e+003 -1.300000e+003
    endloop
  endfacet
  facet normal -7.071068e-001 -7.071068e-001  0.000000e+000
    outer loop
      vertex -3.841576e+003  4.595682e+003 -1.300000e+003
      vertex -7.096194e+003  7.850299e+003  1.700000e+003
      vertex -7.096194e+003  7.850299e+003 -1.300000e+003
    endloop
  endfacet
  facet normal  7.071068e-001  7.071068e-001  0.000000e+000
    outer loop
      vertex -3.135177e+003  3.887868e+003  1.700000e+003
      vertex -2.429289e+003  3.181980e+003  1.700000e+003
      vertex -3.135177e+003  3.887868e+003 -1.300000e+003
    endloop
  endfacet
  facet normal  7.071068e-001  7.071068e-001  0.000000e+000
    outer loop
      vertex -3.135177e+003  3.887868e+003 -1.300000e+003
      vertex -2.429289e+003  3.181980e+003  1.700000e+003
      vertex -2.429289e+003  3.181980e+003 -1.300000e+003
    endloop
  endfacet
  facet normal  7.071068e-001  7.071067e-001  0.000000e+000
    outer loop
      vertex -7.096194e+003  7.848885e+003  1.700000e+003
      vertex -3.842283e+003  4.594975e+003  1.700000e+003
      vertex -7.096194e+003  7.848885e+003 -1.300000e+003
    endloop
  endfacet
  facet normal  7.071068e-001  7.071067e-001  0.000000e+000
    outer loop
      vertex -7.096194e+003  7.848885e+003 -1.300000e+003
      vertex -3.842283e+003  4.594975e+003  1.700000e+003
      vertex -3.842283e+003  4.594975e+003 -1.300000e+003
    endloop
  endfacet
  facet normal -7.071068e-001 -7.071068e-001  0.000000e+000
    outer loop
      vertex -4.054416e+003  4.382843e+003  1.700000e+003
      vertex -7.096194e+003  7.424621e+003  1.700000e+003
      vertex -4.054416e+003  4.382843e+003 -1.300000e+003
    endloop
  endfacet
  facet normal -7.071068e-001 -7.071068e-001  0.000000e+000
    outer loop
      vertex -4.054416e+003  4.382843e+003 -1.300000e+003
      vertex -7.096194e+003  7.424621e+003  1.700000e+003
      vertex -7.096194e+003  7.424621e+003 -1.300000e+003
    endloop
  endfacet
  facet normal -7.071068e-001 -7.071068e-001  0.000000e+000
    outer loop
      vertex -2.853553e+003  3.181980e+003  1.700000e+003
      vertex -3.347309e+003  3.675736e+003  1.700000e+003
      vertex -2.853553e+003  3.181980e+003 -1.300000e+003
    endloop
  endfacet
  facet normal -7.071068e-001 -7.071068e-001  0.000000e+000
    outer loop
      vertex -2.853553e+003  3.181980e+003 -1.300000e+003
      vertex -3.347309e+003  3.675736e+003  1.700000e+003
      vertex -3.347309e+003  3.675736e+003 -1.300000e+003
    endloop
  endfacet
  facet normal  0.000000e+000  -0.000000e+000 -1.000000e+000
    outer loop
      vertex -5.681980e+003 -7.071068e+001 -1.300000e+003
      vertex -2.853553e+003  3.181980e+003 -1.300000e+003
      vertex -2.429289e+003  3.181980e+003 -1.300000e+003
    endloop
  endfacet
  facet normal  0.000000e+000  0.000000e+000 -1.000000e+000
    outer loop
      vertex -2.429289e+003  3.181980e+003 -1.300000e+003
      vertex -2.853553e+003  3.181980e+003 -1.300000e+003
      vertex -3.347309e+003  3.675736e+003 -1.300000e+003
    endloop
  endfacet
  facet normal  0.000000e+000  0.000000e+000 -1.000000e+000
    outer loop
      vertex -2.429289e+003  3.181980e+003 -1.300000e+003
      vertex -3.347309e+003  3.675736e+003 -1.300000e+003
      vertex -3.135177e+003  3.887868e+003 -1.300000e+003
    endloop
  endfacet
  facet normal  0.000000e+000  0.000000e+000 -1.000000e+000
    outer loop
      vertex -2.853553e+003  3.181980e+003 -1.300000e+003
      vertex -5.681980e+003 -7.071068e+001 -1.300000e+003
      vertex -5.681980e+003  3.535534e+002 -1.300000e+003
    endloop
  endfacet
  facet normal  -0.000000e+000  -0.000000e+000 -1.000000e+000
    outer loop
      vertex -5.681980e+003  3.535534e+002 -1.300000e+003
      vertex -5.681980e+003 -7.071068e+001 -1.300000e+003
      vertex -1.034889e+004  4.596194e+003 -1.300000e+003
    endloop
  endfacet
  facet normal  0.000000e+000  0.000000e+000 -1.000000e+000
    outer loop
      vertex -5.681980e+003  3.535534e+002 -1.300000e+003
      vertex -1.034889e+004  4.596194e+003 -1.300000e+003
      vertex -9.924621e+003  4.596194e+003 -1.300000e+003
    endloop
  endfacet
  facet normal  0.000000e+000  0.000000e+000 -9.999999e-001
    outer loop
      vertex -9.924621e+003  4.596194e+003 -1.300000e+003
      vertex -1.034889e+004  4.596194e+003 -1.300000e+003
      vertex -7.096194e+003  7.848885e+003 -1.300000e+003
    endloop
  endfacet
  facet normal  0.000000e+000  -0.000000e+000 -1.000000e+000
    outer loop
      vertex -9.924621e+003  4.596194e+003 -1.300000e+003
      vertex -7.096194e+003  7.848885e+003 -1.300000e+003
      vertex -7.096194e+003  7.424621e+003 -1.300000e+003
    endloop
  endfacet
  facet normal  0.000000e+000  0.000000e+000 -1.000000e+000
    outer loop
      vertex -7.096194e+003  7.424621e+003 -1.300000e+003
      vertex -7.096194e+003  7.848885e+003 -1.300000e+003
      vertex -3.842283e+003  4.594975e+003 -1.300000e+003
    endloop
  endfacet
  facet normal  -0.000000e+000  0.000000e+000 -1.000000e+000
    outer loop
      vertex -7.096194e+003  7.424621e+003 -1.300000e+003
      vertex -3.842283e+003  4.594975e+003 -1.300000e+003
      vertex -4.054416e+003  4.382843e+003 -1.300000e+003
    endloop
  endfacet
  facet normal  -0.000000e+000  0.000000e+000  1.000000e+000
    outer loop
      vertex -3.135177e+003  3.887868e+003  1.700000e+003
      vertex -3.347309e+003  3.675736e+003  1.700000e+003
      vertex -2.429289e+003  3.181980e+003  1.700000e+003
    endloop
  endfacet
  facet normal  0.000000e+000  0.000000e+000  1.000000e+000
    outer loop
      vertex -2.429289e+003  3.181980e+003  1.700000e+003
      vertex -3.347309e+003  3.675736e+003  1.700000e+003
      vertex -2.853553e+003  3.181980e+003  1.700000e+003
    endloop
  endfacet
  facet normal  -0.000000e+000  0.000000e+000  1.000000e+000
    outer loop
      vertex -2.429289e+003  3.181980e+003  1.700000e+003
      vertex -2.853553e+003  3.181980e+003  1.700000e+003
      vertex -5.681980e+003 -7.071068e+001  1.700000e+003
    endloop
  endfacet
  facet normal  0.000000e+000  0.000000e+000  1.000000e+000
    outer loop
      vertex -5.681980e+003 -7.071068e+001  1.700000e+003
      vertex -2.853553e+003  3.181980e+003  1.700000e+003
      vertex -5.681980e+003  3.535534e+002  1.700000e+003
    endloop
  endfacet
  facet normal  0.000000e+000  0.000000e+000  1.000000e+000
    outer loop
      vertex -5.681980e+003 -7.071068e+001  1.700000e+003
      vertex -5.681980e+003  3.535534e+002  1.700000e+003
      vertex -1.034889e+004  4.596194e+003  1.700000e+003
    endloop
  endfacet
  facet normal  -0.000000e+000  0.000000e+000  1.000000e+000
    outer loop
      vertex -1.034889e+004  4.596194e+003  1.700000e+003
      vertex -5.681980e+003  3.535534e+002  1.700000e+003
      vertex -9.924621e+003  4.596194e+003  1.700000e+003
    endloop
  endfacet
  facet normal  0.000000e+000  -0.000000e+000  9.999999e-001
    outer loop
      vertex -1.034889e+004  4.596194e+003  1.700000e+003
      vertex -9.924621e+003  4.596194e+003  1.700000e+003
      vertex -7.096194e+003  7.848885e+003  1.700000e+003
    endloop
  endfacet
  facet normal  0.000000e+000  0.000000e+000  1.000000e+000
    outer loop
      vertex -7.096194e+003  7.848885e+003  1.700000e+003
      vertex -9.924621e+003  4.596194e+003  1.700000e+003
      vertex -7.096194e+003  7.424621e+003  1.700000e+003
    endloop
  endfacet
  facet normal  -0.000000e+000  0.000000e+000  1.000000e+000
    outer loop
      vertex -7.096194e+003  7.848885e+003  1.700000e+003
      vertex -7.096194e+003  7.424621e+003  1.700000e+003
      vertex -3.842283e+003  4.594975e+003  1.700000e+003
    endloop
  endfacet
  facet normal  0.000000e+000  0.000000e+000  1.000000e+000
    outer loop
      vertex -3.842283e+003  4.594975e+003  1.700000e+003
      vertex -7.096194e+003  7.424621e+003  1.700000e+003
      vertex -4.054416e+003  4.382843e+003  1.700000e+003
    endloop
  endfacet
  facet normal -7.071068e-001  7.071068e-001  0.000000e+000
    outer loop
      vertex -5.681980e+003 -7.212489e+001  1.700000e+003
      vertex -2.427875e+003  3.181980e+003  1.700000e+003
      vertex -5.681980e+003 -7.212489e+001 -1.300000e+003
    endloop
  endfacet
  facet normal -7.071068e-001  7.071068e-001  0.000000e+000
    outer loop
      vertex -5.681980e+003 -7.212489e+001 -1.300000e+003
      vertex -2.427875e+003  3.181980e+003  1.700000e+003
      vertex -2.427875e+003  3.181980e+003 -1.300000e+003
    endloop
  endfacet
  facet normal -7.071068e-001 -7.071068e-001  -0.000000e+000
    outer loop
      vertex -1.720256e+003  3.888575e+003 -1.300000e+003
      vertex -1.720256e+003  3.888575e+003  1.700000e+003
      vertex -3.134470e+003  5.302789e+003 -1.300000e+003
    endloop
  endfacet
  facet normal -7.071068e-001 -7.071068e-001  0.000000e+000
    outer loop
      vertex -3.134470e+003  5.302789e+003 -1.300000e+003
      vertex -1.720256e+003  3.888575e+003  1.700000e+003
      vertex -3.134470e+003  5.302789e+003  1.700000e+003
    endloop
  endfacet
  facet normal  7.071067e-001 -7.071069e-001  0.000000e+000
    outer loop
      vertex -7.096194e+003  7.850299e+003  1.700000e+003
      vertex -1.035030e+004  4.596194e+003  1.700000e+003
      vertex -7.096194e+003  7.850299e+003 -1.300000e+003
    endloop
  endfacet
  facet normal  7.071067e-001 -7.071069e-001  0.000000e+000
    outer loop
      vertex -7.096194e+003  7.850299e+003 -1.300000e+003
      vertex -1.035030e+004  4.596194e+003  1.700000e+003
      vertex -1.035030e+004  4.596194e+003 -1.300000e+003
    endloop
  endfacet
  facet normal  7.071067e-001  7.071068e-001  0.000000e+000
    outer loop
      vertex -1.035030e+004  4.596194e+003  1.700000e+003
      vertex -5.681980e+003 -7.212489e+001  1.700000e+003
      vertex -1.035030e+004  4.596194e+003 -1.300000e+003
    endloop
  endfacet
  facet normal  7.071067e-001  7.071068e-001  0.000000e+000
    outer loop
      vertex -1.035030e+004  4.596194e+003 -1.300000e+003
      vertex -5.681980e+003 -7.212489e+001  1.700000e+003
      vertex -5.681980e+003 -7.212489e+001 -1.300000e+003
    endloop
  endfacet
  facet normal -7.071068e-001  7.071068e-001  0.000000e+000
    outer loop
      vertex -1.317590e+004  4.596194e+003  1.700000e+003
      vertex -7.096194e+003  1.067590e+004  1.700000e+003
      vertex -1.317590e+004  4.596194e+003 -1.300000e+003
    endloop
  endfacet
  facet normal -7.071068e-001  7.071068e-001  0.000000e+000
    outer loop
      vertex -1.317590e+004  4.596194e+003 -1.300000e+003
      vertex -7.096194e+003  1.067590e+004  1.700000e+003
      vertex -7.096194e+003  1.067590e+004 -1.300000e+003
    endloop
  endfacet
  facet normal  7.071068e-001 -7.071068e-001  0.000000e+000
    outer loop
      vertex -7.096194e+003  7.424621e+003  1.700000e+003
      vertex -9.924621e+003  4.596194e+003  1.700000e+003
      vertex -7.096194e+003  7.424621e+003 -1.300000e+003
    endloop
  endfacet
  facet normal  7.071068e-001 -7.071068e-001  0.000000e+000
    outer loop
      vertex -7.096194e+003  7.424621e+003 -1.300000e+003
      vertex -9.924621e+003  4.596194e+003  1.700000e+003
      vertex -9.924621e+003  4.596194e+003 -1.300000e+003
    endloop
  endfacet
  facet normal  7.071068e-001  7.071068e-001  0.000000e+000
    outer loop
      vertex -9.924621e+003  4.596194e+003  1.700000e+003
      vertex -5.681980e+003  3.535534e+002  1.700000e+003
      vertex -9.924621e+003  4.596194e+003 -1.300000e+003
    endloop
  endfacet
  facet normal  7.071068e-001  7.071068e-001  0.000000e+000
    outer loop
      vertex -9.924621e+003  4.596194e+003 -1.300000e+003
      vertex -5.681980e+003  3.535534e+002  1.700000e+003
      vertex -5.681980e+003  3.535534e+002 -1.300000e+003
    endloop
  endfacet
  facet normal -7.071068e-001  7.071068e-001  0.000000e+000
    outer loop
      vertex -2.853553e+003  3.181980e+003  1.700000e+003
      vertex -2.853553e+003  3.181980e+003 -1.300000e+003
      vertex -5.681980e+003  3.535534e+002  1.700000e+003
    endloop
  endfacet
  facet normal -7.071068e-001  7.071068e-001  0.000000e+000
    outer loop
      vertex -5.681980e+003  3.535534e+002  1.700000e+003
      vertex -2.853553e+003  3.181980e+003 -1.300000e+003
      vertex -5.681980e+003  3.535534e+002 -1.300000e+003
    endloop
  endfacet
  facet normal -7.071067e-001 -7.071069e-001  0.000000e+000
    outer loop
      vertex -5.681980e+003 -7.071068e+001  1.700000e+003
      vertex -1.034889e+004  4.596194e+003  1.700000e+003
      vertex -5.681980e+003 -7.071068e+001 -1.300000e+003
    endloop
  endfacet
  facet normal -7.071067e-001 -7.071069e-001  0.000000e+000
    outer loop
      vertex -5.681980e+003 -7.071068e+001 -1.300000e+003
      vertex -1.034889e+004  4.596194e+003  1.700000e+003
      vertex -1.034889e+004  4.596194e+003 -1.300000e+003
    endloop
  endfacet
  facet normal -7.071067e-001  7.071068e-001  0.000000e+000
    outer loop
      vertex -1.034889e+004  4.596194e+003  1.700000e+003
      vertex -7.096194e+003  7.848885e+003  1.700000e+003
      vertex -1.034889e+004  4.596194e+003 -1.300000e+003
    endloop
  endfacet
  facet normal -7.071067e-001  7.071068e-001  0.000000e+000
    outer loop
      vertex -1.034889e+004  4.596194e+003 -1.300000e+003
      vertex -7.096194e+003  7.848885e+003  1.700000e+003
      vertex -7.096194e+003  7.848885e+003 -1.300000e+003
    endloop
  endfacet
  facet normal  7.071068e-001 -7.071068e-001  0.000000e+000
    outer loop
      vertex -5.681980e+003 -7.071068e+001  1.700000e+003
      vertex -5.681980e+003 -7.071068e+001 -1.300000e+003
      vertex -2.429289e+003  3.181980e+003  1.700000e+003
    endloop
  endfacet
  facet normal  7.071068e-001 -7.071068e-001  0.000000e+000
    outer loop
      vertex -2.429289e+003  3.181980e+003  1.700000e+003
      vertex -5.681980e+003 -7.071068e+001 -1.300000e+003
      vertex -2.429289e+003  3.181980e+003 -1.300000e+003
    endloop
  endfacet
endsolid CATIA STL
