solid CATIA STL
  facet normal  0.000000e+000  1.000000e+000  0.000000e+000
    outer loop
      vertex -1.000000e+001  5.000000e+000  3.000000e+001
      vertex  1.000000e+001  5.000000e+000  3.000000e+001
      vertex  3.007036e-001  5.000000e+000  2.516300e+001
    endloop
  endfacet
  facet normal  0.000000e+000  1.000000e+000  0.000000e+000
    outer loop
      vertex -1.000000e+001  5.000000e+000  3.000000e+001
      vertex  3.007036e-001  5.000000e+000  2.516300e+001
      vertex -3.271994e-001  5.000000e+000  2.516134e+001
    endloop
  endfacet
  facet normal  0.000000e+000  1.000000e+000  0.000000e+000
    outer loop
      vertex -1.000000e+001  5.000000e+000  3.000000e+001
      vertex -3.271994e-001  5.000000e+000  2.516134e+001
      vertex -9.499422e-001  5.000000e+000  2.508099e+001
    endloop
  endfacet
  facet normal  0.000000e+000  1.000000e+000  0.000000e+000
    outer loop
      vertex -1.000000e+001  5.000000e+000  3.000000e+001
      vertex -9.499422e-001  5.000000e+000  2.508099e+001
      vertex -1.557704e+000  5.000000e+000  2.492322e+001
    endloop
  endfacet
  facet normal  0.000000e+000  1.000000e+000  0.000000e+000
    outer loop
      vertex -1.000000e+001  5.000000e+000  3.000000e+001
      vertex -1.557704e+000  5.000000e+000  2.492322e+001
      vertex -2.140900e+000  5.000000e+000  2.469052e+001
    endloop
  endfacet
  facet normal  0.000000e+000  1.000000e+000  0.000000e+000
    outer loop
      vertex -1.000000e+001  5.000000e+000  3.000000e+001
      vertex -2.140900e+000  5.000000e+000  2.469052e+001
      vertex -2.690332e+000  5.000000e+000  2.438657e+001
    endloop
  endfacet
  facet normal  0.000000e+000  1.000000e+000  0.000000e+000
    outer loop
      vertex -1.000000e+001  5.000000e+000  3.000000e+001
      vertex -2.690332e+000  5.000000e+000  2.438657e+001
      vertex -3.197337e+000  5.000000e+000  2.401615e+001
    endloop
  endfacet
  facet normal  0.000000e+000  1.000000e+000  0.000000e+000
    outer loop
      vertex -1.000000e+001  5.000000e+000  3.000000e+001
      vertex -3.197337e+000  5.000000e+000  2.401615e+001
      vertex -3.653917e+000  5.000000e+000  2.358510e+001
    endloop
  endfacet
  facet normal  0.000000e+000  1.000000e+000  0.000000e+000
    outer loop
      vertex -1.000000e+001  5.000000e+000  3.000000e+001
      vertex -3.653917e+000  5.000000e+000  2.358510e+001
      vertex -4.052873e+000  5.000000e+000  2.310023e+001
    endloop
  endfacet
  facet normal  0.000000e+000  1.000000e+000  0.000000e+000
    outer loop
      vertex -1.000000e+001  5.000000e+000  3.000000e+001
      vertex -4.052873e+000  5.000000e+000  2.310023e+001
      vertex -4.387913e+000  5.000000e+000  2.256918e+001
    endloop
  endfacet
  facet normal  0.000000e+000  9.999999e-001  0.000000e+000
    outer loop
      vertex -1.000000e+001  5.000000e+000  3.000000e+001
      vertex -4.387913e+000  5.000000e+000  2.256918e+001
      vertex -4.653753e+000  5.000000e+000  2.200033e+001
    endloop
  endfacet
  facet normal  0.000000e+000  1.000000e+000  0.000000e+000
    outer loop
      vertex -1.000000e+001  5.000000e+000  3.000000e+001
      vertex -4.653753e+000  5.000000e+000  2.200033e+001
      vertex -4.846200e+000  5.000000e+000  2.140264e+001
    endloop
  endfacet
  facet normal  0.000000e+000  1.000000e+000  0.000000e+000
    outer loop
      vertex -1.000000e+001  5.000000e+000  3.000000e+001
      vertex -4.846200e+000  5.000000e+000  2.140264e+001
      vertex -1.000000e+001  5.000000e+000  0.000000e+000
    endloop
  endfacet
  facet normal  0.000000e+000  1.000000e+000  0.000000e+000
    outer loop
      vertex -1.000000e+001  5.000000e+000  0.000000e+000
      vertex -4.846200e+000  5.000000e+000  2.140264e+001
      vertex -4.962220e+000  5.000000e+000  2.078555e+001
    endloop
  endfacet
  facet normal  0.000000e+000  1.000000e+000  0.000000e+000
    outer loop
      vertex -1.000000e+001  5.000000e+000  0.000000e+000
      vertex -4.962220e+000  5.000000e+000  2.078555e+001
      vertex -4.999982e+000  5.000000e+000  2.015878e+001
    endloop
  endfacet
  facet normal  0.000000e+000  1.000000e+000  0.000000e+000
    outer loop
      vertex -1.000000e+001  5.000000e+000  0.000000e+000
      vertex -4.999982e+000  5.000000e+000  2.015878e+001
      vertex -4.958892e+000  5.000000e+000  1.953222e+001
    endloop
  endfacet
  facet normal  0.000000e+000  1.000000e+000  0.000000e+000
    outer loop
      vertex -1.000000e+001  5.000000e+000  0.000000e+000
      vertex -4.958892e+000  5.000000e+000  1.953222e+001
      vertex -4.839598e+000  5.000000e+000  1.891575e+001
    endloop
  endfacet
  facet normal  0.000000e+000  9.999999e-001  0.000000e+000
    outer loop
      vertex -1.000000e+001  5.000000e+000  0.000000e+000
      vertex -4.839598e+000  5.000000e+000  1.891575e+001
      vertex -4.643980e+000  5.000000e+000  1.831910e+001
    endloop
  endfacet
  facet normal  0.000000e+000  1.000000e+000  0.000000e+000
    outer loop
      vertex -1.000000e+001  5.000000e+000  0.000000e+000
      vertex -4.643980e+000  5.000000e+000  1.831910e+001
      vertex -4.375123e+000  5.000000e+000  1.775166e+001
    endloop
  endfacet
  facet normal  0.000000e+000  1.000000e+000  0.000000e+000
    outer loop
      vertex -1.000000e+001  5.000000e+000  0.000000e+000
      vertex -4.375123e+000  5.000000e+000  1.775166e+001
      vertex -4.037268e+000  5.000000e+000  1.722240e+001
    endloop
  endfacet
  facet normal  0.000000e+000  1.000000e+000  0.000000e+000
    outer loop
      vertex -1.000000e+001  5.000000e+000  0.000000e+000
      vertex -4.037268e+000  5.000000e+000  1.722240e+001
      vertex -3.635744e+000  5.000000e+000  1.673965e+001
    endloop
  endfacet
  facet normal  0.000000e+000  9.999999e-001  0.000000e+000
    outer loop
      vertex -1.000000e+001  5.000000e+000  0.000000e+000
      vertex -3.635744e+000  5.000000e+000  1.673965e+001
      vertex -3.176881e+000  5.000000e+000  1.631104e+001
    endloop
  endfacet
  facet normal  0.000000e+000  1.000000e+000  0.000000e+000
    outer loop
      vertex -1.000000e+001  5.000000e+000  0.000000e+000
      vertex -3.176881e+000  5.000000e+000  1.631104e+001
      vertex -2.667917e+000  5.000000e+000  1.594332e+001
    endloop
  endfacet
  facet normal  0.000000e+000  1.000000e+000  0.000000e+000
    outer loop
      vertex -1.000000e+001  5.000000e+000  0.000000e+000
      vertex -2.667917e+000  5.000000e+000  1.594332e+001
      vertex -2.116878e+000  5.000000e+000  1.564228e+001
    endloop
  endfacet
  facet normal  0.000000e+000  1.000000e+000  0.000000e+000
    outer loop
      vertex -1.000000e+001  5.000000e+000  0.000000e+000
      vertex -2.116878e+000  5.000000e+000  1.564228e+001
      vertex -1.532455e+000  5.000000e+000  1.541269e+001
    endloop
  endfacet
  facet normal  0.000000e+000  1.000000e+000  0.000000e+000
    outer loop
      vertex -1.000000e+001  5.000000e+000  0.000000e+000
      vertex -1.532455e+000  5.000000e+000  1.541269e+001
      vertex -9.238643e-001  5.000000e+000  1.525815e+001
    endloop
  endfacet
  facet normal  0.000000e+000  1.000000e+000  0.000000e+000
    outer loop
      vertex -1.000000e+001  5.000000e+000  0.000000e+000
      vertex -9.238643e-001  5.000000e+000  1.525815e+001
      vertex -3.007036e-001  5.000000e+000  1.518110e+001
    endloop
  endfacet
  facet normal  -0.000000e+000  1.000000e+000  0.000000e+000
    outer loop
      vertex -1.000000e+001  5.000000e+000  0.000000e+000
      vertex -3.007036e-001  5.000000e+000  1.518110e+001
      vertex  3.271994e-001  5.000000e+000  1.518277e+001
    endloop
  endfacet
  facet normal  0.000000e+000  1.000000e+000  0.000000e+000
    outer loop
      vertex -1.000000e+001  5.000000e+000  0.000000e+000
      vertex  3.271994e-001  5.000000e+000  1.518277e+001
      vertex  1.000000e+001  5.000000e+000  0.000000e+000
    endloop
  endfacet
  facet normal  -0.000000e+000  1.000000e+000  0.000000e+000
    outer loop
      vertex  1.000000e+001  5.000000e+000  0.000000e+000
      vertex  3.271994e-001  5.000000e+000  1.518277e+001
      vertex  9.499422e-001  5.000000e+000  1.526312e+001
    endloop
  endfacet
  facet normal  -0.000000e+000  1.000000e+000  0.000000e+000
    outer loop
      vertex  1.000000e+001  5.000000e+000  0.000000e+000
      vertex  9.499422e-001  5.000000e+000  1.526312e+001
      vertex  1.557704e+000  5.000000e+000  1.542089e+001
    endloop
  endfacet
  facet normal  -0.000000e+000  1.000000e+000  0.000000e+000
    outer loop
      vertex  1.000000e+001  5.000000e+000  0.000000e+000
      vertex  1.557704e+000  5.000000e+000  1.542089e+001
      vertex  2.140900e+000  5.000000e+000  1.565359e+001
    endloop
  endfacet
  facet normal  -0.000000e+000  1.000000e+000  0.000000e+000
    outer loop
      vertex  1.000000e+001  5.000000e+000  0.000000e+000
      vertex  2.140900e+000  5.000000e+000  1.565359e+001
      vertex  2.690332e+000  5.000000e+000  1.595754e+001
    endloop
  endfacet
  facet normal  -0.000000e+000  1.000000e+000  0.000000e+000
    outer loop
      vertex  1.000000e+001  5.000000e+000  0.000000e+000
      vertex  2.690332e+000  5.000000e+000  1.595754e+001
      vertex  3.197337e+000  5.000000e+000  1.632796e+001
    endloop
  endfacet
  facet normal  -0.000000e+000  9.999999e-001  0.000000e+000
    outer loop
      vertex  1.000000e+001  5.000000e+000  0.000000e+000
      vertex  3.197337e+000  5.000000e+000  1.632796e+001
      vertex  3.653917e+000  5.000000e+000  1.675901e+001
    endloop
  endfacet
  facet normal  -0.000000e+000  1.000000e+000  0.000000e+000
    outer loop
      vertex  1.000000e+001  5.000000e+000  0.000000e+000
      vertex  3.653917e+000  5.000000e+000  1.675901e+001
      vertex  4.052873e+000  5.000000e+000  1.724388e+001
    endloop
  endfacet
  facet normal  -0.000000e+000  1.000000e+000  0.000000e+000
    outer loop
      vertex  1.000000e+001  5.000000e+000  0.000000e+000
      vertex  4.052873e+000  5.000000e+000  1.724388e+001
      vertex  4.387913e+000  5.000000e+000  1.777493e+001
    endloop
  endfacet
  facet normal  -0.000000e+000  1.000000e+000  0.000000e+000
    outer loop
      vertex  1.000000e+001  5.000000e+000  0.000000e+000
      vertex  4.387913e+000  5.000000e+000  1.777493e+001
      vertex  4.653753e+000  5.000000e+000  1.834378e+001
    endloop
  endfacet
  facet normal  -0.000000e+000  1.000000e+000  0.000000e+000
    outer loop
      vertex  1.000000e+001  5.000000e+000  0.000000e+000
      vertex  4.653753e+000  5.000000e+000  1.834378e+001
      vertex  4.846200e+000  5.000000e+000  1.894147e+001
    endloop
  endfacet
  facet normal  -0.000000e+000  1.000000e+000  0.000000e+000
    outer loop
      vertex  1.000000e+001  5.000000e+000  0.000000e+000
      vertex  4.846200e+000  5.000000e+000  1.894147e+001
      vertex  4.962220e+000  5.000000e+000  1.955856e+001
    endloop
  endfacet
  facet normal  -0.000000e+000  9.999999e-001  0.000000e+000
    outer loop
      vertex  1.000000e+001  5.000000e+000  0.000000e+000
      vertex  4.962220e+000  5.000000e+000  1.955856e+001
      vertex  4.999982e+000  5.000000e+000  2.018533e+001
    endloop
  endfacet
  facet normal  -0.000000e+000  1.000000e+000  -0.000000e+000
    outer loop
      vertex  1.000000e+001  5.000000e+000  0.000000e+000
      vertex  4.999982e+000  5.000000e+000  2.018533e+001
      vertex  4.958892e+000  5.000000e+000  2.081189e+001
    endloop
  endfacet
  facet normal  -0.000000e+000  1.000000e+000  -0.000000e+000
    outer loop
      vertex  1.000000e+001  5.000000e+000  0.000000e+000
      vertex  4.958892e+000  5.000000e+000  2.081189e+001
      vertex  4.839598e+000  5.000000e+000  2.142836e+001
    endloop
  endfacet
  facet normal  0.000000e+000  1.000000e+000  -0.000000e+000
    outer loop
      vertex  1.000000e+001  5.000000e+000  3.000000e+001
      vertex  1.000000e+001  5.000000e+000  0.000000e+000
      vertex  4.839598e+000  5.000000e+000  2.142836e+001
    endloop
  endfacet
  facet normal  0.000000e+000  9.999999e-001  -0.000000e+000
    outer loop
      vertex  1.000000e+001  5.000000e+000  3.000000e+001
      vertex  4.839598e+000  5.000000e+000  2.142836e+001
      vertex  4.643980e+000  5.000000e+000  2.202501e+001
    endloop
  endfacet
  facet normal  0.000000e+000  1.000000e+000  -0.000000e+000
    outer loop
      vertex  1.000000e+001  5.000000e+000  3.000000e+001
      vertex  4.643980e+000  5.000000e+000  2.202501e+001
      vertex  4.375123e+000  5.000000e+000  2.259245e+001
    endloop
  endfacet
  facet normal  0.000000e+000  1.000000e+000  -0.000000e+000
    outer loop
      vertex  1.000000e+001  5.000000e+000  3.000000e+001
      vertex  4.375123e+000  5.000000e+000  2.259245e+001
      vertex  4.037268e+000  5.000000e+000  2.312171e+001
    endloop
  endfacet
  facet normal  0.000000e+000  1.000000e+000  -0.000000e+000
    outer loop
      vertex  1.000000e+001  5.000000e+000  3.000000e+001
      vertex  4.037268e+000  5.000000e+000  2.312171e+001
      vertex  3.635744e+000  5.000000e+000  2.360445e+001
    endloop
  endfacet
  facet normal  0.000000e+000  1.000000e+000  -0.000000e+000
    outer loop
      vertex  1.000000e+001  5.000000e+000  3.000000e+001
      vertex  3.635744e+000  5.000000e+000  2.360445e+001
      vertex  3.176881e+000  5.000000e+000  2.403307e+001
    endloop
  endfacet
  facet normal  0.000000e+000  1.000000e+000  -0.000000e+000
    outer loop
      vertex  1.000000e+001  5.000000e+000  3.000000e+001
      vertex  3.176881e+000  5.000000e+000  2.403307e+001
      vertex  2.667917e+000  5.000000e+000  2.440079e+001
    endloop
  endfacet
  facet normal  0.000000e+000  9.999999e-001  -0.000000e+000
    outer loop
      vertex  1.000000e+001  5.000000e+000  3.000000e+001
      vertex  2.667917e+000  5.000000e+000  2.440079e+001
      vertex  2.116878e+000  5.000000e+000  2.470183e+001
    endloop
  endfacet
  facet normal  0.000000e+000  1.000000e+000  -0.000000e+000
    outer loop
      vertex  1.000000e+001  5.000000e+000  3.000000e+001
      vertex  2.116878e+000  5.000000e+000  2.470183e+001
      vertex  1.532455e+000  5.000000e+000  2.493142e+001
    endloop
  endfacet
  facet normal  0.000000e+000  1.000000e+000  -0.000000e+000
    outer loop
      vertex  1.000000e+001  5.000000e+000  3.000000e+001
      vertex  1.532455e+000  5.000000e+000  2.493142e+001
      vertex  9.238643e-001  5.000000e+000  2.508596e+001
    endloop
  endfacet
  facet normal  0.000000e+000  1.000000e+000  -0.000000e+000
    outer loop
      vertex  1.000000e+001  5.000000e+000  3.000000e+001
      vertex  9.238643e-001  5.000000e+000  2.508596e+001
      vertex  3.007036e-001  5.000000e+000  2.516300e+001
    endloop
  endfacet
  facet normal  0.000000e+000 -1.000000e+000  0.000000e+000
    outer loop
      vertex  1.000000e+001 -5.000000e+000  3.000000e+001
      vertex -1.000000e+001 -5.000000e+000  3.000000e+001
      vertex -3.271994e-001 -5.000000e+000  2.516134e+001
    endloop
  endfacet
  facet normal  0.000000e+000 -1.000000e+000  0.000000e+000
    outer loop
      vertex  1.000000e+001 -5.000000e+000  3.000000e+001
      vertex -3.271994e-001 -5.000000e+000  2.516134e+001
      vertex  3.007036e-001 -5.000000e+000  2.516300e+001
    endloop
  endfacet
  facet normal  0.000000e+000 -1.000000e+000  0.000000e+000
    outer loop
      vertex  1.000000e+001 -5.000000e+000  3.000000e+001
      vertex  3.007036e-001 -5.000000e+000  2.516300e+001
      vertex  9.238643e-001 -5.000000e+000  2.508596e+001
    endloop
  endfacet
  facet normal  0.000000e+000 -1.000000e+000  0.000000e+000
    outer loop
      vertex  1.000000e+001 -5.000000e+000  3.000000e+001
      vertex  9.238643e-001 -5.000000e+000  2.508596e+001
      vertex  1.532455e+000 -5.000000e+000  2.493142e+001
    endloop
  endfacet
  facet normal  0.000000e+000 -1.000000e+000  0.000000e+000
    outer loop
      vertex  1.000000e+001 -5.000000e+000  3.000000e+001
      vertex  1.532455e+000 -5.000000e+000  2.493142e+001
      vertex  2.116878e+000 -5.000000e+000  2.470183e+001
    endloop
  endfacet
  facet normal  0.000000e+000 -1.000000e+000  0.000000e+000
    outer loop
      vertex  1.000000e+001 -5.000000e+000  3.000000e+001
      vertex  2.116878e+000 -5.000000e+000  2.470183e+001
      vertex  2.667917e+000 -5.000000e+000  2.440079e+001
    endloop
  endfacet
  facet normal  0.000000e+000 -1.000000e+000  0.000000e+000
    outer loop
      vertex  1.000000e+001 -5.000000e+000  3.000000e+001
      vertex  2.667917e+000 -5.000000e+000  2.440079e+001
      vertex  3.176881e+000 -5.000000e+000  2.403307e+001
    endloop
  endfacet
  facet normal  0.000000e+000 -1.000000e+000  0.000000e+000
    outer loop
      vertex  1.000000e+001 -5.000000e+000  3.000000e+001
      vertex  3.176881e+000 -5.000000e+000  2.403307e+001
      vertex  3.635744e+000 -5.000000e+000  2.360445e+001
    endloop
  endfacet
  facet normal  0.000000e+000 -1.000000e+000  0.000000e+000
    outer loop
      vertex  1.000000e+001 -5.000000e+000  3.000000e+001
      vertex  3.635744e+000 -5.000000e+000  2.360445e+001
      vertex  4.037268e+000 -5.000000e+000  2.312171e+001
    endloop
  endfacet
  facet normal  0.000000e+000 -1.000000e+000  0.000000e+000
    outer loop
      vertex  1.000000e+001 -5.000000e+000  3.000000e+001
      vertex  4.037268e+000 -5.000000e+000  2.312171e+001
      vertex  4.375123e+000 -5.000000e+000  2.259245e+001
    endloop
  endfacet
  facet normal  0.000000e+000 -1.000000e+000  0.000000e+000
    outer loop
      vertex  1.000000e+001 -5.000000e+000  3.000000e+001
      vertex  4.375123e+000 -5.000000e+000  2.259245e+001
      vertex  4.643980e+000 -5.000000e+000  2.202501e+001
    endloop
  endfacet
  facet normal  0.000000e+000 -9.999999e-001  0.000000e+000
    outer loop
      vertex  1.000000e+001 -5.000000e+000  3.000000e+001
      vertex  4.643980e+000 -5.000000e+000  2.202501e+001
      vertex  4.839598e+000 -5.000000e+000  2.142836e+001
    endloop
  endfacet
  facet normal  0.000000e+000 -1.000000e+000  0.000000e+000
    outer loop
      vertex  1.000000e+001 -5.000000e+000  3.000000e+001
      vertex  4.839598e+000 -5.000000e+000  2.142836e+001
      vertex  1.000000e+001 -5.000000e+000  0.000000e+000
    endloop
  endfacet
  facet normal  0.000000e+000 -1.000000e+000  0.000000e+000
    outer loop
      vertex  1.000000e+001 -5.000000e+000  0.000000e+000
      vertex  4.839598e+000 -5.000000e+000  2.142836e+001
      vertex  4.958892e+000 -5.000000e+000  2.081189e+001
    endloop
  endfacet
  facet normal  0.000000e+000 -1.000000e+000  0.000000e+000
    outer loop
      vertex  1.000000e+001 -5.000000e+000  0.000000e+000
      vertex  4.958892e+000 -5.000000e+000  2.081189e+001
      vertex  4.999982e+000 -5.000000e+000  2.018533e+001
    endloop
  endfacet
  facet normal  0.000000e+000 -9.999999e-001  -0.000000e+000
    outer loop
      vertex  1.000000e+001 -5.000000e+000  0.000000e+000
      vertex  4.999982e+000 -5.000000e+000  2.018533e+001
      vertex  4.962220e+000 -5.000000e+000  1.955856e+001
    endloop
  endfacet
  facet normal  0.000000e+000 -1.000000e+000  -0.000000e+000
    outer loop
      vertex  1.000000e+001 -5.000000e+000  0.000000e+000
      vertex  4.962220e+000 -5.000000e+000  1.955856e+001
      vertex  4.846200e+000 -5.000000e+000  1.894147e+001
    endloop
  endfacet
  facet normal  0.000000e+000 -9.999999e-001  -0.000000e+000
    outer loop
      vertex  1.000000e+001 -5.000000e+000  0.000000e+000
      vertex  4.846200e+000 -5.000000e+000  1.894147e+001
      vertex  4.653753e+000 -5.000000e+000  1.834378e+001
    endloop
  endfacet
  facet normal  0.000000e+000 -1.000000e+000  -0.000000e+000
    outer loop
      vertex  1.000000e+001 -5.000000e+000  0.000000e+000
      vertex  4.653753e+000 -5.000000e+000  1.834378e+001
      vertex  4.387913e+000 -5.000000e+000  1.777493e+001
    endloop
  endfacet
  facet normal  0.000000e+000 -1.000000e+000  -0.000000e+000
    outer loop
      vertex  1.000000e+001 -5.000000e+000  0.000000e+000
      vertex  4.387913e+000 -5.000000e+000  1.777493e+001
      vertex  4.052873e+000 -5.000000e+000  1.724388e+001
    endloop
  endfacet
  facet normal  0.000000e+000 -1.000000e+000  -0.000000e+000
    outer loop
      vertex  1.000000e+001 -5.000000e+000  0.000000e+000
      vertex  4.052873e+000 -5.000000e+000  1.724388e+001
      vertex  3.653917e+000 -5.000000e+000  1.675901e+001
    endloop
  endfacet
  facet normal  0.000000e+000 -9.999999e-001  -0.000000e+000
    outer loop
      vertex  1.000000e+001 -5.000000e+000  0.000000e+000
      vertex  3.653917e+000 -5.000000e+000  1.675901e+001
      vertex  3.197337e+000 -5.000000e+000  1.632796e+001
    endloop
  endfacet
  facet normal  0.000000e+000 -1.000000e+000  -0.000000e+000
    outer loop
      vertex  1.000000e+001 -5.000000e+000  0.000000e+000
      vertex  3.197337e+000 -5.000000e+000  1.632796e+001
      vertex  2.690332e+000 -5.000000e+000  1.595754e+001
    endloop
  endfacet
  facet normal  0.000000e+000 -1.000000e+000  -0.000000e+000
    outer loop
      vertex  1.000000e+001 -5.000000e+000  0.000000e+000
      vertex  2.690332e+000 -5.000000e+000  1.595754e+001
      vertex  2.140900e+000 -5.000000e+000  1.565359e+001
    endloop
  endfacet
  facet normal  0.000000e+000 -1.000000e+000  -0.000000e+000
    outer loop
      vertex  1.000000e+001 -5.000000e+000  0.000000e+000
      vertex  2.140900e+000 -5.000000e+000  1.565359e+001
      vertex  1.557704e+000 -5.000000e+000  1.542089e+001
    endloop
  endfacet
  facet normal  0.000000e+000 -1.000000e+000  -0.000000e+000
    outer loop
      vertex  1.000000e+001 -5.000000e+000  0.000000e+000
      vertex  1.557704e+000 -5.000000e+000  1.542089e+001
      vertex  9.499422e-001 -5.000000e+000  1.526312e+001
    endloop
  endfacet
  facet normal  0.000000e+000 -9.999999e-001  -0.000000e+000
    outer loop
      vertex  1.000000e+001 -5.000000e+000  0.000000e+000
      vertex  9.499422e-001 -5.000000e+000  1.526312e+001
      vertex  3.271994e-001 -5.000000e+000  1.518277e+001
    endloop
  endfacet
  facet normal  0.000000e+000 -1.000000e+000  -0.000000e+000
    outer loop
      vertex  1.000000e+001 -5.000000e+000  0.000000e+000
      vertex  3.271994e-001 -5.000000e+000  1.518277e+001
      vertex -3.007036e-001 -5.000000e+000  1.518110e+001
    endloop
  endfacet
  facet normal  0.000000e+000 -1.000000e+000  -0.000000e+000
    outer loop
      vertex  1.000000e+001 -5.000000e+000  0.000000e+000
      vertex -3.007036e-001 -5.000000e+000  1.518110e+001
      vertex -1.000000e+001 -5.000000e+000  0.000000e+000
    endloop
  endfacet
  facet normal  -0.000000e+000 -9.999999e-001  0.000000e+000
    outer loop
      vertex -1.000000e+001 -5.000000e+000  0.000000e+000
      vertex -3.007036e-001 -5.000000e+000  1.518110e+001
      vertex -9.238643e-001 -5.000000e+000  1.525815e+001
    endloop
  endfacet
  facet normal  -0.000000e+000 -1.000000e+000  0.000000e+000
    outer loop
      vertex -1.000000e+001 -5.000000e+000  0.000000e+000
      vertex -9.238643e-001 -5.000000e+000  1.525815e+001
      vertex -1.532455e+000 -5.000000e+000  1.541269e+001
    endloop
  endfacet
  facet normal  -0.000000e+000 -1.000000e+000  0.000000e+000
    outer loop
      vertex -1.000000e+001 -5.000000e+000  0.000000e+000
      vertex -1.532455e+000 -5.000000e+000  1.541269e+001
      vertex -2.116878e+000 -5.000000e+000  1.564228e+001
    endloop
  endfacet
  facet normal  -0.000000e+000 -1.000000e+000  0.000000e+000
    outer loop
      vertex -1.000000e+001 -5.000000e+000  0.000000e+000
      vertex -2.116878e+000 -5.000000e+000  1.564228e+001
      vertex -2.667917e+000 -5.000000e+000  1.594332e+001
    endloop
  endfacet
  facet normal  -0.000000e+000 -1.000000e+000  0.000000e+000
    outer loop
      vertex -1.000000e+001 -5.000000e+000  0.000000e+000
      vertex -2.667917e+000 -5.000000e+000  1.594332e+001
      vertex -3.176881e+000 -5.000000e+000  1.631104e+001
    endloop
  endfacet
  facet normal  -0.000000e+000 -9.999999e-001  0.000000e+000
    outer loop
      vertex -1.000000e+001 -5.000000e+000  0.000000e+000
      vertex -3.176881e+000 -5.000000e+000  1.631104e+001
      vertex -3.635744e+000 -5.000000e+000  1.673965e+001
    endloop
  endfacet
  facet normal  -0.000000e+000 -1.000000e+000  0.000000e+000
    outer loop
      vertex -1.000000e+001 -5.000000e+000  0.000000e+000
      vertex -3.635744e+000 -5.000000e+000  1.673965e+001
      vertex -4.037268e+000 -5.000000e+000  1.722240e+001
    endloop
  endfacet
  facet normal  -0.000000e+000 -1.000000e+000  0.000000e+000
    outer loop
      vertex -1.000000e+001 -5.000000e+000  0.000000e+000
      vertex -4.037268e+000 -5.000000e+000  1.722240e+001
      vertex -4.375123e+000 -5.000000e+000  1.775166e+001
    endloop
  endfacet
  facet normal  -0.000000e+000 -9.999999e-001  0.000000e+000
    outer loop
      vertex -1.000000e+001 -5.000000e+000  0.000000e+000
      vertex -4.375123e+000 -5.000000e+000  1.775166e+001
      vertex -4.643980e+000 -5.000000e+000  1.831910e+001
    endloop
  endfacet
  facet normal  -0.000000e+000 -1.000000e+000  0.000000e+000
    outer loop
      vertex -1.000000e+001 -5.000000e+000  0.000000e+000
      vertex -4.643980e+000 -5.000000e+000  1.831910e+001
      vertex -4.839598e+000 -5.000000e+000  1.891575e+001
    endloop
  endfacet
  facet normal  -0.000000e+000 -1.000000e+000  0.000000e+000
    outer loop
      vertex -1.000000e+001 -5.000000e+000  0.000000e+000
      vertex -4.839598e+000 -5.000000e+000  1.891575e+001
      vertex -4.958892e+000 -5.000000e+000  1.953222e+001
    endloop
  endfacet
  facet normal  -0.000000e+000 -1.000000e+000  0.000000e+000
    outer loop
      vertex -1.000000e+001 -5.000000e+000  0.000000e+000
      vertex -4.958892e+000 -5.000000e+000  1.953222e+001
      vertex -4.999982e+000 -5.000000e+000  2.015878e+001
    endloop
  endfacet
  facet normal  -0.000000e+000 -1.000000e+000  0.000000e+000
    outer loop
      vertex -1.000000e+001 -5.000000e+000  0.000000e+000
      vertex -4.999982e+000 -5.000000e+000  2.015878e+001
      vertex -4.962220e+000 -5.000000e+000  2.078555e+001
    endloop
  endfacet
  facet normal  -0.000000e+000 -1.000000e+000  0.000000e+000
    outer loop
      vertex -1.000000e+001 -5.000000e+000  0.000000e+000
      vertex -4.962220e+000 -5.000000e+000  2.078555e+001
      vertex -4.846200e+000 -5.000000e+000  2.140264e+001
    endloop
  endfacet
  facet normal  0.000000e+000 -1.000000e+000  0.000000e+000
    outer loop
      vertex -1.000000e+001 -5.000000e+000  3.000000e+001
      vertex -1.000000e+001 -5.000000e+000  0.000000e+000
      vertex -4.846200e+000 -5.000000e+000  2.140264e+001
    endloop
  endfacet
  facet normal  0.000000e+000 -1.000000e+000  0.000000e+000
    outer loop
      vertex -1.000000e+001 -5.000000e+000  3.000000e+001
      vertex -4.846200e+000 -5.000000e+000  2.140264e+001
      vertex -4.653753e+000 -5.000000e+000  2.200033e+001
    endloop
  endfacet
  facet normal  0.000000e+000 -9.999999e-001  0.000000e+000
    outer loop
      vertex -1.000000e+001 -5.000000e+000  3.000000e+001
      vertex -4.653753e+000 -5.000000e+000  2.200033e+001
      vertex -4.387913e+000 -5.000000e+000  2.256918e+001
    endloop
  endfacet
  facet normal  0.000000e+000 -1.000000e+000  0.000000e+000
    outer loop
      vertex -1.000000e+001 -5.000000e+000  3.000000e+001
      vertex -4.387913e+000 -5.000000e+000  2.256918e+001
      vertex -4.052873e+000 -5.000000e+000  2.310023e+001
    endloop
  endfacet
  facet normal  0.000000e+000 -1.000000e+000  0.000000e+000
    outer loop
      vertex -1.000000e+001 -5.000000e+000  3.000000e+001
      vertex -4.052873e+000 -5.000000e+000  2.310023e+001
      vertex -3.653917e+000 -5.000000e+000  2.358510e+001
    endloop
  endfacet
  facet normal  0.000000e+000 -1.000000e+000  0.000000e+000
    outer loop
      vertex -1.000000e+001 -5.000000e+000  3.000000e+001
      vertex -3.653917e+000 -5.000000e+000  2.358510e+001
      vertex -3.197337e+000 -5.000000e+000  2.401615e+001
    endloop
  endfacet
  facet normal  0.000000e+000 -1.000000e+000  0.000000e+000
    outer loop
      vertex -1.000000e+001 -5.000000e+000  3.000000e+001
      vertex -3.197337e+000 -5.000000e+000  2.401615e+001
      vertex -2.690332e+000 -5.000000e+000  2.438657e+001
    endloop
  endfacet
  facet normal  0.000000e+000 -1.000000e+000  0.000000e+000
    outer loop
      vertex -1.000000e+001 -5.000000e+000  3.000000e+001
      vertex -2.690332e+000 -5.000000e+000  2.438657e+001
      vertex -2.140900e+000 -5.000000e+000  2.469052e+001
    endloop
  endfacet
  facet normal  0.000000e+000 -1.000000e+000  0.000000e+000
    outer loop
      vertex -1.000000e+001 -5.000000e+000  3.000000e+001
      vertex -2.140900e+000 -5.000000e+000  2.469052e+001
      vertex -1.557704e+000 -5.000000e+000  2.492322e+001
    endloop
  endfacet
  facet normal  0.000000e+000 -1.000000e+000  0.000000e+000
    outer loop
      vertex -1.000000e+001 -5.000000e+000  3.000000e+001
      vertex -1.557704e+000 -5.000000e+000  2.492322e+001
      vertex -9.499422e-001 -5.000000e+000  2.508099e+001
    endloop
  endfacet
  facet normal  0.000000e+000 -9.999999e-001  0.000000e+000
    outer loop
      vertex -1.000000e+001 -5.000000e+000  3.000000e+001
      vertex -9.499422e-001 -5.000000e+000  2.508099e+001
      vertex -3.271994e-001 -5.000000e+000  2.516134e+001
    endloop
  endfacet
  facet normal  5.856363e-001  0.000000e+000  8.105739e-001
    outer loop
      vertex -2.667917e+000 -5.000000e+000  1.594332e+001
      vertex -3.176881e+000  5.000000e+000  1.631104e+001
      vertex -3.176881e+000 -5.000000e+000  1.631104e+001
    endloop
  endfacet
  facet normal  6.826091e-001  -0.000000e+000  7.307837e-001
    outer loop
      vertex -3.176881e+000 -5.000000e+000  1.631104e+001
      vertex -3.176881e+000  5.000000e+000  1.631104e+001
      vertex -3.635744e+000  5.000000e+000  1.673965e+001
    endloop
  endfacet
  facet normal  6.826091e-001  0.000000e+000  7.307837e-001
    outer loop
      vertex -3.176881e+000 -5.000000e+000  1.631104e+001
      vertex -3.635744e+000  5.000000e+000  1.673965e+001
      vertex -3.635744e+000 -5.000000e+000  1.673965e+001
    endloop
  endfacet
  facet normal  7.688180e-001  -0.000000e+000  6.394677e-001
    outer loop
      vertex -3.635744e+000 -5.000000e+000  1.673965e+001
      vertex -3.635744e+000  5.000000e+000  1.673965e+001
      vertex -4.037268e+000  5.000000e+000  1.722240e+001
    endloop
  endfacet
  facet normal  7.688180e-001  0.000000e+000  6.394677e-001
    outer loop
      vertex -3.635744e+000 -5.000000e+000  1.673965e+001
      vertex -4.037268e+000  5.000000e+000  1.722240e+001
      vertex -4.037268e+000 -5.000000e+000  1.722240e+001
    endloop
  endfacet
  facet normal  8.429022e-001  -0.000000e+000  5.380668e-001
    outer loop
      vertex -4.037268e+000 -5.000000e+000  1.722240e+001
      vertex -4.037268e+000  5.000000e+000  1.722240e+001
      vertex -4.375123e+000  5.000000e+000  1.775166e+001
    endloop
  endfacet
  facet normal  8.429022e-001  0.000000e+000  5.380668e-001
    outer loop
      vertex -4.037268e+000 -5.000000e+000  1.722240e+001
      vertex -4.375123e+000  5.000000e+000  1.775166e+001
      vertex -4.375123e+000 -5.000000e+000  1.775166e+001
    endloop
  endfacet
  facet normal  9.036936e-001  -0.000000e+000  4.281798e-001
    outer loop
      vertex -4.375123e+000 -5.000000e+000  1.775166e+001
      vertex -4.375123e+000  5.000000e+000  1.775166e+001
      vertex -4.643980e+000  5.000000e+000  1.831910e+001
    endloop
  endfacet
  facet normal  9.036936e-001  0.000000e+000  4.281798e-001
    outer loop
      vertex -4.375123e+000 -5.000000e+000  1.775166e+001
      vertex -4.643980e+000  5.000000e+000  1.831910e+001
      vertex -4.643980e+000 -5.000000e+000  1.831910e+001
    endloop
  endfacet
  facet normal  9.502328e-001  -0.000000e+000  3.115405e-001
    outer loop
      vertex -4.643980e+000 -5.000000e+000  1.831910e+001
      vertex -4.643980e+000  5.000000e+000  1.831910e+001
      vertex -4.839598e+000  5.000000e+000  1.891575e+001
    endloop
  endfacet
  facet normal  9.502328e-001  0.000000e+000  3.115405e-001
    outer loop
      vertex -4.643980e+000 -5.000000e+000  1.831910e+001
      vertex -4.839598e+000  5.000000e+000  1.891575e+001
      vertex -4.839598e+000 -5.000000e+000  1.891575e+001
    endloop
  endfacet
  facet normal  9.817863e-001  -0.000000e+000  1.899884e-001
    outer loop
      vertex -4.839598e+000 -5.000000e+000  1.891575e+001
      vertex -4.839598e+000  5.000000e+000  1.891575e+001
      vertex -4.958892e+000  5.000000e+000  1.953222e+001
    endloop
  endfacet
  facet normal  9.817863e-001  0.000000e+000  1.899884e-001
    outer loop
      vertex -4.839598e+000 -5.000000e+000  1.891575e+001
      vertex -4.958892e+000  5.000000e+000  1.953222e+001
      vertex -4.958892e+000 -5.000000e+000  1.953222e+001
    endloop
  endfacet
  facet normal  9.978564e-001  -0.000000e+000  6.543973e-002
    outer loop
      vertex -4.958892e+000 -5.000000e+000  1.953222e+001
      vertex -4.958892e+000  5.000000e+000  1.953222e+001
      vertex -4.999982e+000  5.000000e+000  2.015878e+001
    endloop
  endfacet
  facet normal  9.978564e-001  0.000000e+000  6.543973e-002
    outer loop
      vertex -4.958892e+000 -5.000000e+000  1.953222e+001
      vertex -4.999982e+000  5.000000e+000  2.015878e+001
      vertex -4.999982e+000 -5.000000e+000  2.015878e+001
    endloop
  endfacet
  facet normal  9.981900e-001  0.000000e+000 -6.014073e-002
    outer loop
      vertex -4.999982e+000 -5.000000e+000  2.015878e+001
      vertex -4.999982e+000  5.000000e+000  2.015878e+001
      vertex -4.962220e+000  5.000000e+000  2.078555e+001
    endloop
  endfacet
  facet normal  9.981900e-001  0.000000e+000 -6.014073e-002
    outer loop
      vertex -4.999982e+000 -5.000000e+000  2.015878e+001
      vertex -4.962220e+000  5.000000e+000  2.078555e+001
      vertex -4.962220e+000 -5.000000e+000  2.078555e+001
    endloop
  endfacet
  facet normal  9.827814e-001  0.000000e+000 -1.847725e-001
    outer loop
      vertex -4.962220e+000 -5.000000e+000  2.078555e+001
      vertex -4.962220e+000  5.000000e+000  2.078555e+001
      vertex -4.846200e+000  5.000000e+000  2.140264e+001
    endloop
  endfacet
  facet normal  9.827814e-001  0.000000e+000 -1.847725e-001
    outer loop
      vertex -4.962220e+000 -5.000000e+000  2.078555e+001
      vertex -4.846200e+000  5.000000e+000  2.140264e+001
      vertex -4.846200e+000 -5.000000e+000  2.140264e+001
    endloop
  endfacet
  facet normal  9.518734e-001  0.000000e+000 -3.064916e-001
    outer loop
      vertex -4.846200e+000 -5.000000e+000  2.140264e+001
      vertex -4.846200e+000  5.000000e+000  2.140264e+001
      vertex -4.653753e+000  5.000000e+000  2.200033e+001
    endloop
  endfacet
  facet normal  9.518734e-001  0.000000e+000 -3.064916e-001
    outer loop
      vertex -4.846200e+000 -5.000000e+000  2.140264e+001
      vertex -4.653753e+000  5.000000e+000  2.200033e+001
      vertex -4.653753e+000 -5.000000e+000  2.200033e+001
    endloop
  endfacet
  facet normal  9.059541e-001  0.000000e+000 -4.233760e-001
    outer loop
      vertex -4.653753e+000 -5.000000e+000  2.200033e+001
      vertex -4.653753e+000  5.000000e+000  2.200033e+001
      vertex -4.387913e+000  5.000000e+000  2.256918e+001
    endloop
  endfacet
  facet normal  9.059541e-001  0.000000e+000 -4.233760e-001
    outer loop
      vertex -4.653753e+000 -5.000000e+000  2.200033e+001
      vertex -4.387913e+000  5.000000e+000  2.256918e+001
      vertex -4.387913e+000 -5.000000e+000  2.256918e+001
    endloop
  endfacet
  facet normal  5.856363e-001  -0.000000e+000  8.105739e-001
    outer loop
      vertex -3.176881e+000  5.000000e+000  1.631104e+001
      vertex -2.667917e+000 -5.000000e+000  1.594332e+001
      vertex -2.667917e+000  5.000000e+000  1.594332e+001
    endloop
  endfacet
  facet normal  4.794247e-001  0.000000e+000  8.775830e-001
    outer loop
      vertex -2.667917e+000  5.000000e+000  1.594332e+001
      vertex -2.667917e+000 -5.000000e+000  1.594332e+001
      vertex -2.116878e+000 -5.000000e+000  1.564228e+001
    endloop
  endfacet
  facet normal  4.794247e-001  -0.000000e+000  8.775830e-001
    outer loop
      vertex -2.667917e+000  5.000000e+000  1.594332e+001
      vertex -2.116878e+000 -5.000000e+000  1.564228e+001
      vertex -2.116878e+000  5.000000e+000  1.564228e+001
    endloop
  endfacet
  facet normal  3.656555e-001  0.000000e+000  9.307503e-001
    outer loop
      vertex -2.116878e+000  5.000000e+000  1.564228e+001
      vertex -2.116878e+000 -5.000000e+000  1.564228e+001
      vertex -1.532455e+000 -5.000000e+000  1.541269e+001
    endloop
  endfacet
  facet normal  3.656555e-001  -0.000000e+000  9.307503e-001
    outer loop
      vertex -2.116878e+000  5.000000e+000  1.564228e+001
      vertex -1.532455e+000 -5.000000e+000  1.541269e+001
      vertex -1.532455e+000  5.000000e+000  1.541269e+001
    endloop
  endfacet
  facet normal  2.461171e-001  0.000000e+000  9.692401e-001
    outer loop
      vertex -1.532455e+000  5.000000e+000  1.541269e+001
      vertex -1.532455e+000 -5.000000e+000  1.541269e+001
      vertex -9.238643e-001 -5.000000e+000  1.525815e+001
    endloop
  endfacet
  facet normal  2.461171e-001  -0.000000e+000  9.692401e-001
    outer loop
      vertex -1.532455e+000  5.000000e+000  1.541269e+001
      vertex -9.238643e-001 -5.000000e+000  1.525815e+001
      vertex -9.238643e-001  5.000000e+000  1.525815e+001
    endloop
  endfacet
  facet normal  1.226993e-001  0.000000e+000  9.924439e-001
    outer loop
      vertex -9.238643e-001  5.000000e+000  1.525815e+001
      vertex -9.238643e-001 -5.000000e+000  1.525815e+001
      vertex -3.007036e-001 -5.000000e+000  1.518110e+001
    endloop
  endfacet
  facet normal  1.226993e-001  -0.000000e+000  9.924439e-001
    outer loop
      vertex -9.238643e-001  5.000000e+000  1.525815e+001
      vertex -3.007036e-001 -5.000000e+000  1.518110e+001
      vertex -3.007036e-001  5.000000e+000  1.518110e+001
    endloop
  endfacet
  facet normal -2.654895e-003  0.000000e+000  9.999964e-001
    outer loop
      vertex -3.007036e-001  5.000000e+000  1.518110e+001
      vertex -3.007036e-001 -5.000000e+000  1.518110e+001
      vertex  3.271994e-001 -5.000000e+000  1.518277e+001
    endloop
  endfacet
  facet normal -2.654895e-003  0.000000e+000  9.999964e-001
    outer loop
      vertex -3.007036e-001  5.000000e+000  1.518110e+001
      vertex  3.271994e-001 -5.000000e+000  1.518277e+001
      vertex  3.271994e-001  5.000000e+000  1.518277e+001
    endloop
  endfacet
  facet normal -1.279666e-001  0.000000e+000  9.917785e-001
    outer loop
      vertex  3.271994e-001  5.000000e+000  1.518277e+001
      vertex  3.271994e-001 -5.000000e+000  1.518277e+001
      vertex  9.499422e-001 -5.000000e+000  1.526312e+001
    endloop
  endfacet
  facet normal -1.279666e-001  0.000000e+000  9.917785e-001
    outer loop
      vertex  3.271994e-001  5.000000e+000  1.518277e+001
      vertex  9.499422e-001 -5.000000e+000  1.526312e+001
      vertex  9.499422e-001  5.000000e+000  1.526312e+001
    endloop
  endfacet
  facet normal -2.512612e-001  0.000000e+000  9.679193e-001
    outer loop
      vertex  9.499422e-001  5.000000e+000  1.526312e+001
      vertex  9.499422e-001 -5.000000e+000  1.526312e+001
      vertex  1.557704e+000 -5.000000e+000  1.542089e+001
    endloop
  endfacet
  facet normal -2.512612e-001  0.000000e+000  9.679193e-001
    outer loop
      vertex  9.499422e-001  5.000000e+000  1.526312e+001
      vertex  1.557704e+000 -5.000000e+000  1.542089e+001
      vertex  1.557704e+000  5.000000e+000  1.542089e+001
    endloop
  endfacet
  facet normal -3.705905e-001  0.000000e+000  9.287964e-001
    outer loop
      vertex  1.557704e+000  5.000000e+000  1.542089e+001
      vertex  1.557704e+000 -5.000000e+000  1.542089e+001
      vertex  2.140900e+000 -5.000000e+000  1.565359e+001
    endloop
  endfacet
  facet normal -3.705905e-001  0.000000e+000  9.287964e-001
    outer loop
      vertex  1.557704e+000  5.000000e+000  1.542089e+001
      vertex  2.140900e+000 -5.000000e+000  1.565359e+001
      vertex  2.140900e+000  5.000000e+000  1.565359e+001
    endloop
  endfacet
  facet normal -4.840792e-001  0.000000e+000  8.750241e-001
    outer loop
      vertex  2.140900e+000  5.000000e+000  1.565359e+001
      vertex  2.140900e+000 -5.000000e+000  1.565359e+001
      vertex  2.690332e+000 -5.000000e+000  1.595754e+001
    endloop
  endfacet
  facet normal -4.840792e-001  0.000000e+000  8.750241e-001
    outer loop
      vertex  2.140900e+000  5.000000e+000  1.565359e+001
      vertex  2.690332e+000 -5.000000e+000  1.595754e+001
      vertex  2.690332e+000  5.000000e+000  1.595754e+001
    endloop
  endfacet
  facet normal -5.899306e-001  0.000000e+000  8.074539e-001
    outer loop
      vertex  2.690332e+000  5.000000e+000  1.595754e+001
      vertex  2.690332e+000 -5.000000e+000  1.595754e+001
      vertex  3.197337e+000 -5.000000e+000  1.632796e+001
    endloop
  endfacet
  facet normal -5.899306e-001  0.000000e+000  8.074539e-001
    outer loop
      vertex  2.690332e+000  5.000000e+000  1.595754e+001
      vertex  3.197337e+000 -5.000000e+000  1.632796e+001
      vertex  3.197337e+000  5.000000e+000  1.632796e+001
    endloop
  endfacet
  facet normal -6.864794e-001  0.000000e+000  7.271492e-001
    outer loop
      vertex  3.197337e+000  5.000000e+000  1.632796e+001
      vertex  3.197337e+000 -5.000000e+000  1.632796e+001
      vertex  3.653917e+000 -5.000000e+000  1.675901e+001
    endloop
  endfacet
  facet normal -6.864794e-001  0.000000e+000  7.271492e-001
    outer loop
      vertex  3.197337e+000  5.000000e+000  1.632796e+001
      vertex  3.653917e+000 -5.000000e+000  1.675901e+001
      vertex  3.653917e+000  5.000000e+000  1.675901e+001
    endloop
  endfacet
  facet normal -7.722032e-001  0.000000e+000  6.353756e-001
    outer loop
      vertex  3.653917e+000  5.000000e+000  1.675901e+001
      vertex  3.653917e+000 -5.000000e+000  1.675901e+001
      vertex  4.052873e+000 -5.000000e+000  1.724388e+001
    endloop
  endfacet
  facet normal -7.722032e-001  0.000000e+000  6.353756e-001
    outer loop
      vertex  3.653917e+000  5.000000e+000  1.675901e+001
      vertex  4.052873e+000 -5.000000e+000  1.724388e+001
      vertex  4.052873e+000  5.000000e+000  1.724388e+001
    endloop
  endfacet
  facet normal -8.457478e-001  0.000000e+000  5.335828e-001
    outer loop
      vertex  4.052873e+000  5.000000e+000  1.724388e+001
      vertex  4.052873e+000 -5.000000e+000  1.724388e+001
      vertex  4.387913e+000 -5.000000e+000  1.777493e+001
    endloop
  endfacet
  facet normal -8.457478e-001  0.000000e+000  5.335828e-001
    outer loop
      vertex  4.052873e+000  5.000000e+000  1.724388e+001
      vertex  4.387913e+000 -5.000000e+000  1.777493e+001
      vertex  4.387913e+000  5.000000e+000  1.777493e+001
    endloop
  endfacet
  facet normal -5.856353e-001  -0.000000e+000 -8.105747e-001
    outer loop
      vertex  2.667917e+000 -5.000000e+000  2.440079e+001
      vertex  3.176881e+000  5.000000e+000  2.403307e+001
      vertex  3.176881e+000 -5.000000e+000  2.403307e+001
    endloop
  endfacet
  facet normal -6.826091e-001  0.000000e+000 -7.307837e-001
    outer loop
      vertex  3.176881e+000 -5.000000e+000  2.403307e+001
      vertex  3.176881e+000  5.000000e+000  2.403307e+001
      vertex  3.635744e+000  5.000000e+000  2.360445e+001
    endloop
  endfacet
  facet normal -6.826091e-001  -0.000000e+000 -7.307837e-001
    outer loop
      vertex  3.176881e+000 -5.000000e+000  2.403307e+001
      vertex  3.635744e+000  5.000000e+000  2.360445e+001
      vertex  3.635744e+000 -5.000000e+000  2.360445e+001
    endloop
  endfacet
  facet normal -7.688180e-001  0.000000e+000 -6.394677e-001
    outer loop
      vertex  3.635744e+000 -5.000000e+000  2.360445e+001
      vertex  3.635744e+000  5.000000e+000  2.360445e+001
      vertex  4.037268e+000  5.000000e+000  2.312171e+001
    endloop
  endfacet
  facet normal -7.688180e-001  -0.000000e+000 -6.394677e-001
    outer loop
      vertex  3.635744e+000 -5.000000e+000  2.360445e+001
      vertex  4.037268e+000  5.000000e+000  2.312171e+001
      vertex  4.037268e+000 -5.000000e+000  2.312171e+001
    endloop
  endfacet
  facet normal -8.429022e-001  0.000000e+000 -5.380668e-001
    outer loop
      vertex  4.037268e+000 -5.000000e+000  2.312171e+001
      vertex  4.037268e+000  5.000000e+000  2.312171e+001
      vertex  4.375123e+000  5.000000e+000  2.259245e+001
    endloop
  endfacet
  facet normal -8.429022e-001  -0.000000e+000 -5.380668e-001
    outer loop
      vertex  4.037268e+000 -5.000000e+000  2.312171e+001
      vertex  4.375123e+000  5.000000e+000  2.259245e+001
      vertex  4.375123e+000 -5.000000e+000  2.259245e+001
    endloop
  endfacet
  facet normal -9.036936e-001  0.000000e+000 -4.281798e-001
    outer loop
      vertex  4.375123e+000 -5.000000e+000  2.259245e+001
      vertex  4.375123e+000  5.000000e+000  2.259245e+001
      vertex  4.643980e+000  5.000000e+000  2.202501e+001
    endloop
  endfacet
  facet normal -9.036936e-001  -0.000000e+000 -4.281798e-001
    outer loop
      vertex  4.375123e+000 -5.000000e+000  2.259245e+001
      vertex  4.643980e+000  5.000000e+000  2.202501e+001
      vertex  4.643980e+000 -5.000000e+000  2.202501e+001
    endloop
  endfacet
  facet normal -9.502328e-001  0.000000e+000 -3.115405e-001
    outer loop
      vertex  4.643980e+000 -5.000000e+000  2.202501e+001
      vertex  4.643980e+000  5.000000e+000  2.202501e+001
      vertex  4.839598e+000  5.000000e+000  2.142836e+001
    endloop
  endfacet
  facet normal -9.502328e-001  -0.000000e+000 -3.115405e-001
    outer loop
      vertex  4.643980e+000 -5.000000e+000  2.202501e+001
      vertex  4.839598e+000  5.000000e+000  2.142836e+001
      vertex  4.839598e+000 -5.000000e+000  2.142836e+001
    endloop
  endfacet
  facet normal -9.817863e-001  0.000000e+000 -1.899884e-001
    outer loop
      vertex  4.839598e+000 -5.000000e+000  2.142836e+001
      vertex  4.839598e+000  5.000000e+000  2.142836e+001
      vertex  4.958892e+000  5.000000e+000  2.081189e+001
    endloop
  endfacet
  facet normal -9.817863e-001  -0.000000e+000 -1.899884e-001
    outer loop
      vertex  4.839598e+000 -5.000000e+000  2.142836e+001
      vertex  4.958892e+000  5.000000e+000  2.081189e+001
      vertex  4.958892e+000 -5.000000e+000  2.081189e+001
    endloop
  endfacet
  facet normal -9.978564e-001  0.000000e+000 -6.543973e-002
    outer loop
      vertex  4.958892e+000 -5.000000e+000  2.081189e+001
      vertex  4.958892e+000  5.000000e+000  2.081189e+001
      vertex  4.999982e+000  5.000000e+000  2.018533e+001
    endloop
  endfacet
  facet normal -9.978564e-001  -0.000000e+000 -6.543973e-002
    outer loop
      vertex  4.958892e+000 -5.000000e+000  2.081189e+001
      vertex  4.999982e+000  5.000000e+000  2.018533e+001
      vertex  4.999982e+000 -5.000000e+000  2.018533e+001
    endloop
  endfacet
  facet normal -9.981900e-001  0.000000e+000  6.014073e-002
    outer loop
      vertex  4.999982e+000 -5.000000e+000  2.018533e+001
      vertex  4.999982e+000  5.000000e+000  2.018533e+001
      vertex  4.962220e+000  5.000000e+000  1.955856e+001
    endloop
  endfacet
  facet normal -9.981900e-001  0.000000e+000  6.014073e-002
    outer loop
      vertex  4.999982e+000 -5.000000e+000  2.018533e+001
      vertex  4.962220e+000  5.000000e+000  1.955856e+001
      vertex  4.962220e+000 -5.000000e+000  1.955856e+001
    endloop
  endfacet
  facet normal -9.827814e-001  0.000000e+000  1.847725e-001
    outer loop
      vertex  4.962220e+000 -5.000000e+000  1.955856e+001
      vertex  4.962220e+000  5.000000e+000  1.955856e+001
      vertex  4.846200e+000  5.000000e+000  1.894147e+001
    endloop
  endfacet
  facet normal -9.827814e-001  0.000000e+000  1.847725e-001
    outer loop
      vertex  4.962220e+000 -5.000000e+000  1.955856e+001
      vertex  4.846200e+000  5.000000e+000  1.894147e+001
      vertex  4.846200e+000 -5.000000e+000  1.894147e+001
    endloop
  endfacet
  facet normal -9.518734e-001  0.000000e+000  3.064916e-001
    outer loop
      vertex  4.846200e+000 -5.000000e+000  1.894147e+001
      vertex  4.846200e+000  5.000000e+000  1.894147e+001
      vertex  4.653753e+000  5.000000e+000  1.834378e+001
    endloop
  endfacet
  facet normal -9.518734e-001  0.000000e+000  3.064916e-001
    outer loop
      vertex  4.846200e+000 -5.000000e+000  1.894147e+001
      vertex  4.653753e+000  5.000000e+000  1.834378e+001
      vertex  4.653753e+000 -5.000000e+000  1.834378e+001
    endloop
  endfacet
  facet normal -9.059541e-001  0.000000e+000  4.233760e-001
    outer loop
      vertex  4.653753e+000 -5.000000e+000  1.834378e+001
      vertex  4.653753e+000  5.000000e+000  1.834378e+001
      vertex  4.387913e+000  5.000000e+000  1.777493e+001
    endloop
  endfacet
  facet normal -9.059541e-001  0.000000e+000  4.233760e-001
    outer loop
      vertex  4.653753e+000 -5.000000e+000  1.834378e+001
      vertex  4.387913e+000  5.000000e+000  1.777493e+001
      vertex  4.387913e+000 -5.000000e+000  1.777493e+001
    endloop
  endfacet
  facet normal -5.856353e-001  0.000000e+000 -8.105747e-001
    outer loop
      vertex  3.176881e+000  5.000000e+000  2.403307e+001
      vertex  2.667917e+000 -5.000000e+000  2.440079e+001
      vertex  2.667917e+000  5.000000e+000  2.440079e+001
    endloop
  endfacet
  facet normal -4.794270e-001  -0.000000e+000 -8.775817e-001
    outer loop
      vertex  2.667917e+000  5.000000e+000  2.440079e+001
      vertex  2.667917e+000 -5.000000e+000  2.440079e+001
      vertex  2.116878e+000 -5.000000e+000  2.470183e+001
    endloop
  endfacet
  facet normal -4.794270e-001  0.000000e+000 -8.775817e-001
    outer loop
      vertex  2.667917e+000  5.000000e+000  2.440079e+001
      vertex  2.116878e+000 -5.000000e+000  2.470183e+001
      vertex  2.116878e+000  5.000000e+000  2.470183e+001
    endloop
  endfacet
  facet normal -3.656529e-001  -0.000000e+000 -9.307513e-001
    outer loop
      vertex  2.116878e+000  5.000000e+000  2.470183e+001
      vertex  2.116878e+000 -5.000000e+000  2.470183e+001
      vertex  1.532455e+000 -5.000000e+000  2.493142e+001
    endloop
  endfacet
  facet normal -3.656529e-001  0.000000e+000 -9.307513e-001
    outer loop
      vertex  2.116878e+000  5.000000e+000  2.470183e+001
      vertex  1.532455e+000 -5.000000e+000  2.493142e+001
      vertex  1.532455e+000  5.000000e+000  2.493142e+001
    endloop
  endfacet
  facet normal -2.461185e-001  -0.000000e+000 -9.692397e-001
    outer loop
      vertex  1.532455e+000  5.000000e+000  2.493142e+001
      vertex  1.532455e+000 -5.000000e+000  2.493142e+001
      vertex  9.238643e-001 -5.000000e+000  2.508596e+001
    endloop
  endfacet
  facet normal -2.461185e-001  0.000000e+000 -9.692397e-001
    outer loop
      vertex  1.532455e+000  5.000000e+000  2.493142e+001
      vertex  9.238643e-001 -5.000000e+000  2.508596e+001
      vertex  9.238643e-001  5.000000e+000  2.508596e+001
    endloop
  endfacet
  facet normal -1.226993e-001  -0.000000e+000 -9.924439e-001
    outer loop
      vertex  9.238643e-001  5.000000e+000  2.508596e+001
      vertex  9.238643e-001 -5.000000e+000  2.508596e+001
      vertex  3.007036e-001 -5.000000e+000  2.516300e+001
    endloop
  endfacet
  facet normal -1.226993e-001  0.000000e+000 -9.924439e-001
    outer loop
      vertex  9.238643e-001  5.000000e+000  2.508596e+001
      vertex  3.007036e-001 -5.000000e+000  2.516300e+001
      vertex  3.007036e-001  5.000000e+000  2.516300e+001
    endloop
  endfacet
  facet normal  2.654895e-003  0.000000e+000 -9.999964e-001
    outer loop
      vertex  3.007036e-001  5.000000e+000  2.516300e+001
      vertex  3.007036e-001 -5.000000e+000  2.516300e+001
      vertex -3.271994e-001 -5.000000e+000  2.516134e+001
    endloop
  endfacet
  facet normal  2.654895e-003  0.000000e+000 -9.999964e-001
    outer loop
      vertex  3.007036e-001  5.000000e+000  2.516300e+001
      vertex -3.271994e-001 -5.000000e+000  2.516134e+001
      vertex -3.271994e-001  5.000000e+000  2.516134e+001
    endloop
  endfacet
  facet normal  1.279666e-001  0.000000e+000 -9.917785e-001
    outer loop
      vertex -3.271994e-001  5.000000e+000  2.516134e+001
      vertex -3.271994e-001 -5.000000e+000  2.516134e+001
      vertex -9.499422e-001 -5.000000e+000  2.508099e+001
    endloop
  endfacet
  facet normal  1.279666e-001  0.000000e+000 -9.917785e-001
    outer loop
      vertex -3.271994e-001  5.000000e+000  2.516134e+001
      vertex -9.499422e-001 -5.000000e+000  2.508099e+001
      vertex -9.499422e-001  5.000000e+000  2.508099e+001
    endloop
  endfacet
  facet normal  2.512612e-001  0.000000e+000 -9.679193e-001
    outer loop
      vertex -9.499422e-001  5.000000e+000  2.508099e+001
      vertex -9.499422e-001 -5.000000e+000  2.508099e+001
      vertex -1.557704e+000 -5.000000e+000  2.492322e+001
    endloop
  endfacet
  facet normal  2.512612e-001  0.000000e+000 -9.679193e-001
    outer loop
      vertex -9.499422e-001  5.000000e+000  2.508099e+001
      vertex -1.557704e+000 -5.000000e+000  2.492322e+001
      vertex -1.557704e+000  5.000000e+000  2.492322e+001
    endloop
  endfacet
  facet normal  3.705918e-001  0.000000e+000 -9.287958e-001
    outer loop
      vertex -1.557704e+000  5.000000e+000  2.492322e+001
      vertex -1.557704e+000 -5.000000e+000  2.492322e+001
      vertex -2.140900e+000 -5.000000e+000  2.469052e+001
    endloop
  endfacet
  facet normal  3.705918e-001  0.000000e+000 -9.287958e-001
    outer loop
      vertex -1.557704e+000  5.000000e+000  2.492322e+001
      vertex -2.140900e+000 -5.000000e+000  2.469052e+001
      vertex -2.140900e+000  5.000000e+000  2.469052e+001
    endloop
  endfacet
  facet normal  4.840781e-001  0.000000e+000 -8.750249e-001
    outer loop
      vertex -2.140900e+000  5.000000e+000  2.469052e+001
      vertex -2.140900e+000 -5.000000e+000  2.469052e+001
      vertex -2.690332e+000 -5.000000e+000  2.438657e+001
    endloop
  endfacet
  facet normal  4.840781e-001  0.000000e+000 -8.750249e-001
    outer loop
      vertex -2.140900e+000  5.000000e+000  2.469052e+001
      vertex -2.690332e+000 -5.000000e+000  2.438657e+001
      vertex -2.690332e+000  5.000000e+000  2.438657e+001
    endloop
  endfacet
  facet normal  5.899306e-001  0.000000e+000 -8.074539e-001
    outer loop
      vertex -2.690332e+000  5.000000e+000  2.438657e+001
      vertex -2.690332e+000 -5.000000e+000  2.438657e+001
      vertex -3.197337e+000 -5.000000e+000  2.401615e+001
    endloop
  endfacet
  facet normal  5.899306e-001  0.000000e+000 -8.074539e-001
    outer loop
      vertex -2.690332e+000  5.000000e+000  2.438657e+001
      vertex -3.197337e+000 -5.000000e+000  2.401615e+001
      vertex -3.197337e+000  5.000000e+000  2.401615e+001
    endloop
  endfacet
  facet normal  6.864794e-001  0.000000e+000 -7.271492e-001
    outer loop
      vertex -3.197337e+000  5.000000e+000  2.401615e+001
      vertex -3.197337e+000 -5.000000e+000  2.401615e+001
      vertex -3.653917e+000 -5.000000e+000  2.358510e+001
    endloop
  endfacet
  facet normal  6.864794e-001  0.000000e+000 -7.271492e-001
    outer loop
      vertex -3.197337e+000  5.000000e+000  2.401615e+001
      vertex -3.653917e+000 -5.000000e+000  2.358510e+001
      vertex -3.653917e+000  5.000000e+000  2.358510e+001
    endloop
  endfacet
  facet normal  7.722032e-001  0.000000e+000 -6.353756e-001
    outer loop
      vertex -3.653917e+000  5.000000e+000  2.358510e+001
      vertex -3.653917e+000 -5.000000e+000  2.358510e+001
      vertex -4.052873e+000 -5.000000e+000  2.310023e+001
    endloop
  endfacet
  facet normal  7.722032e-001  0.000000e+000 -6.353756e-001
    outer loop
      vertex -3.653917e+000  5.000000e+000  2.358510e+001
      vertex -4.052873e+000 -5.000000e+000  2.310023e+001
      vertex -4.052873e+000  5.000000e+000  2.310023e+001
    endloop
  endfacet
  facet normal  8.457478e-001  0.000000e+000 -5.335828e-001
    outer loop
      vertex -4.052873e+000  5.000000e+000  2.310023e+001
      vertex -4.052873e+000 -5.000000e+000  2.310023e+001
      vertex -4.387913e+000 -5.000000e+000  2.256918e+001
    endloop
  endfacet
  facet normal  8.457478e-001  0.000000e+000 -5.335828e-001
    outer loop
      vertex -4.052873e+000  5.000000e+000  2.310023e+001
      vertex -4.387913e+000 -5.000000e+000  2.256918e+001
      vertex -4.387913e+000  5.000000e+000  2.256918e+001
    endloop
  endfacet
  facet normal  0.000000e+000  0.000000e+000  1.000000e+000
    outer loop
      vertex -1.000000e+001 -5.000000e+000  3.000000e+001
      vertex  1.000000e+001 -5.000000e+000  3.000000e+001
      vertex -1.000000e+001  5.000000e+000  3.000000e+001
    endloop
  endfacet
  facet normal  -0.000000e+000  0.000000e+000  1.000000e+000
    outer loop
      vertex -1.000000e+001  5.000000e+000  3.000000e+001
      vertex  1.000000e+001 -5.000000e+000  3.000000e+001
      vertex  1.000000e+001  5.000000e+000  3.000000e+001
    endloop
  endfacet
  facet normal  0.000000e+000  0.000000e+000 -1.000000e+000
    outer loop
      vertex -1.000000e+001 -5.000000e+000  0.000000e+000
      vertex -1.000000e+001  5.000000e+000  0.000000e+000
      vertex  1.000000e+001 -5.000000e+000  0.000000e+000
    endloop
  endfacet
  facet normal  0.000000e+000  0.000000e+000 -1.000000e+000
    outer loop
      vertex  1.000000e+001 -5.000000e+000  0.000000e+000
      vertex -1.000000e+001  5.000000e+000  0.000000e+000
      vertex  1.000000e+001  5.000000e+000  0.000000e+000
    endloop
  endfacet
  facet normal  1.000000e+000  0.000000e+000  0.000000e+000
    outer loop
      vertex  1.000000e+001  5.000000e+000  0.000000e+000
      vertex  1.000000e+001  5.000000e+000  3.000000e+001
      vertex  1.000000e+001 -5.000000e+000  0.000000e+000
    endloop
  endfacet
  facet normal  1.000000e+000  0.000000e+000  0.000000e+000
    outer loop
      vertex  1.000000e+001 -5.000000e+000  0.000000e+000
      vertex  1.000000e+001  5.000000e+000  3.000000e+001
      vertex  1.000000e+001 -5.000000e+000  3.000000e+001
    endloop
  endfacet
  facet normal -1.000000e+000  0.000000e+000  0.000000e+000
    outer loop
      vertex -1.000000e+001 -5.000000e+000  0.000000e+000
      vertex -1.000000e+001 -5.000000e+000  3.000000e+001
      vertex -1.000000e+001  5.000000e+000  0.000000e+000
    endloop
  endfacet
  facet normal -1.000000e+000  0.000000e+000  0.000000e+000
    outer loop
      vertex -1.000000e+001  5.000000e+000  0.000000e+000
      vertex -1.000000e+001 -5.000000e+000  3.000000e+001
      vertex -1.000000e+001  5.000000e+000  3.000000e+001
    endloop
  endfacet
endsolid CATIA STL
